<?xml version="1.0" encoding="UTF-8" standalone="no"?>
<svg
   class="svglite"
   width="959.98pt"
   height="468.00pt"
   viewBox="0 0 959.98 468.00"
   version="1.1"
   id="svg44"
   sodipodi:docname="R0_PRCC_vary_lf.svg"
   inkscape:version="1.3.2 (091e20e, 2023-11-25, custom)"
   xmlns:inkscape="http://www.inkscape.org/namespaces/inkscape"
   xmlns:sodipodi="http://sodipodi.sourceforge.net/DTD/sodipodi-0.dtd"
   xmlns="http://www.w3.org/2000/svg"
   xmlns:svg="http://www.w3.org/2000/svg">
  <sodipodi:namedview
     id="namedview44"
     pagecolor="#ffffff"
     bordercolor="#000000"
     borderopacity="0.25"
     inkscape:showpageshadow="2"
     inkscape:pageopacity="0.0"
     inkscape:pagecheckerboard="0"
     inkscape:deskcolor="#d1d1d1"
     inkscape:document-units="pt"
     inkscape:zoom="0.53807529"
     inkscape:cx="527.80718"
     inkscape:cy="287.13454"
     inkscape:window-width="1440"
     inkscape:window-height="821"
     inkscape:window-x="-7"
     inkscape:window-y="-7"
     inkscape:window-maximized="1"
     inkscape:current-layer="g44" />
  <defs
     id="defs1">
    <style
       type="text/css"
       id="style1"><![CDATA[
    .svglite line, .svglite polyline, .svglite polygon, .svglite path, .svglite rect, .svglite circle {
      fill: none;
      stroke: #000000;
      stroke-linecap: round;
      stroke-linejoin: round;
      stroke-miterlimit: 10.00;
    }
    .svglite text {
      white-space: pre;
    }
  ]]></style>
    <clipPath
       clipPathUnits="userSpaceOnUse"
       id="clipPath51">
      <rect
         style="fill:#000000;fill-rule:evenodd;stroke-width:0"
         id="rect52"
         width="17.371302"
         height="2.4332142"
         x="825.66388"
         y="419.64236" />
    </clipPath>
    <clipPath
       clipPathUnits="userSpaceOnUse"
       id="clipPath51-3">
      <rect
         style="fill:#000000;fill-rule:evenodd;stroke-width:0"
         id="rect52-6"
         width="17.371302"
         height="2.4332142"
         x="825.66388"
         y="419.64236" />
    </clipPath>
    <clipPath
       clipPathUnits="userSpaceOnUse"
       id="clipPath51-3-1">
      <rect
         style="fill:#000000;fill-rule:evenodd;stroke-width:0"
         id="rect52-6-2"
         width="17.371302"
         height="2.4332142"
         x="825.66388"
         y="419.64236" />
    </clipPath>
    <clipPath
       clipPathUnits="userSpaceOnUse"
       id="clipPath51-3-1-9">
      <rect
         style="fill:#000000;fill-rule:evenodd;stroke-width:0"
         id="rect52-6-2-8"
         width="17.371302"
         height="2.4332142"
         x="825.66388"
         y="419.64236" />
    </clipPath>
    <clipPath
       clipPathUnits="userSpaceOnUse"
       id="clipPath51-3-1-3">
      <rect
         style="fill:#000000;fill-rule:evenodd;stroke-width:0"
         id="rect52-6-2-3"
         width="17.371302"
         height="2.4332142"
         x="825.66388"
         y="419.64236" />
    </clipPath>
  </defs>
  <rect
     width="100%"
     height="100%"
     style="stroke: none; fill: none;"
     id="rect1" />
  <defs
     id="defs2">
    <clipPath
       id="cpMC4wMHw5NTkuOTh8MC4wMHw0NjguMDA=">
      <rect
         x="0.00"
         y="0.00"
         width="959.98"
         height="468.00"
         id="rect2" />
    </clipPath>
  </defs>
  <g
     clip-path="url(#cpMC4wMHw5NTkuOTh8MC4wMHw0NjguMDA=)"
     id="g2" />
  <defs
     id="defs3">
    <clipPath
       id="cpNTAuNTh8ODYwLjcxfDYuOTd8NDI2Ljk4">
      <rect
         x="50.58"
         y="6.97"
         width="810.13"
         height="420.01"
         id="rect3" />
    </clipPath>
  </defs>
  <g
     clip-path="url(#cpNTAuNTh8ODYwLjcxfDYuOTd8NDI2Ljk4)"
     id="g19">
    <polyline
       points="50.58,375.90 860.71,375.90 "
       style="stroke-width: 1.07; stroke: #D9D9D9; stroke-linecap: butt;"
       id="polyline3" />
    <polyline
       points="50.58,281.70 860.71,281.70 "
       style="stroke-width: 1.07; stroke: #D9D9D9; stroke-linecap: butt;"
       id="polyline4" />
    <polyline
       points="50.58,187.50 860.71,187.50 "
       style="stroke-width: 1.07; stroke: #D9D9D9; stroke-linecap: butt;"
       id="polyline5" />
    <polyline
       points="50.58,93.30 860.71,93.30 "
       style="stroke-width: 1.07; stroke: #D9D9D9; stroke-linecap: butt;"
       id="polyline6" />
    <polyline
       points="302.00,426.98 302.00,6.97 "
       style="stroke-width: 1.07; stroke: #D9D9D9; stroke-linecap: butt;"
       id="polyline7" />
    <polyline
       points="581.35,426.98 581.35,6.97 "
       style="stroke-width: 1.07; stroke: #D9D9D9; stroke-linecap: butt;"
       id="polyline8" />
    <polyline
       points="860.71,426.98 860.71,6.97 "
       style="stroke-width: 1.07; stroke: #D9D9D9; stroke-linecap: butt;"
       id="polyline9" />
    <polyline
       points="50.58,359.02 52.84,326.34 55.10,301.79 57.35,278.36 59.61,258.87 61.87,242.14 64.12,225.63 66.38,212.20 68.64,200.11 70.89,190.46 73.15,181.26 75.40,173.89 77.66,166.85 79.92,160.33 82.17,154.27 84.43,149.19 86.69,144.86 88.94,140.49 91.20,136.28 93.46,132.27 95.71,128.97 97.97,126.30 100.23,123.81 102.48,121.31 104.74,119.12 107.00,117.37 109.25,115.97 111.51,114.21 113.77,112.61 116.02,111.41 118.28,110.32 120.54,109.33 122.79,108.25 125.05,107.06 127.31,106.01 129.56,104.33 131.82,103.35 134.08,102.20 136.33,101.39 138.59,100.44 140.85,99.99 143.10,99.50 145.36,98.88 147.62,98.28 149.87,97.72 152.13,96.98 154.39,96.51 156.64,96.02 158.90,95.39 161.16,94.67 163.41,93.95 165.67,93.41 167.93,92.83 170.18,92.53 172.44,92.22 174.70,92.05 176.95,91.83 179.21,91.53 181.47,91.12 183.72,90.84 185.98,90.58 188.24,90.32 190.49,90.06 192.75,89.73 195.01,89.23 197.26,88.90 199.52,88.31 201.78,88.04 204.03,87.80 206.29,87.59 208.55,87.58 210.80,87.31 213.06,87.06 215.32,86.92 217.57,86.79 219.83,86.52 222.09,86.45 224.34,86.09 226.60,85.85 228.85,85.58 231.11,85.51 233.37,85.45 235.62,85.32 237.88,85.22 240.14,85.07 242.39,85.06 244.65,85.02 246.91,84.94 249.16,84.86 251.42,84.80 253.68,84.74 255.93,84.65 258.19,84.60 260.45,84.55 262.70,84.44 264.96,84.36 267.22,84.32 269.47,84.37 271.73,84.37 273.99,84.39 276.24,84.33 278.50,84.33 280.76,84.20 283.01,84.03 285.27,83.93 287.53,83.82 289.78,83.73 292.04,83.66 294.30,83.64 296.55,83.62 298.81,83.64 301.07,83.60 303.32,83.55 305.58,83.50 307.84,83.42 310.09,83.42 312.35,83.45 314.61,83.39 316.86,83.27 319.12,83.25 321.38,83.17 323.63,83.06 325.89,82.98 328.15,82.91 330.40,82.92 332.66,82.91 334.92,82.94 337.17,82.94 339.43,82.98 341.69,83.03 343.94,83.06 346.20,83.08 348.46,83.10 350.71,83.12 352.97,83.12 355.23,83.09 357.48,83.11 359.74,83.10 362.00,83.12 364.25,83.12 366.51,83.14 368.77,83.19 371.02,83.18 373.28,83.11 375.53,82.95 377.79,82.86 380.05,82.80 382.30,82.79 384.56,82.80 386.82,82.78 389.07,82.79 391.33,82.82 393.59,82.83 395.84,82.82 398.10,82.83 400.36,82.86 402.61,82.89 404.87,82.90 407.13,82.94 409.38,82.95 411.64,83.00 413.90,83.05 416.15,83.10 418.41,83.17 420.67,83.21 422.92,83.24 425.18,83.24 427.44,83.17 429.69,83.17 431.95,83.19 434.21,83.23 436.46,83.25 438.72,83.28 440.98,83.32 443.23,83.36 445.49,83.37 447.75,83.41 450.00,83.43 452.26,83.43 454.52,83.45 456.77,83.50 459.03,83.54 461.29,83.55 463.54,83.58 465.80,83.62 468.06,83.63 470.31,83.62 472.57,83.65 474.83,83.64 477.08,83.64 479.34,83.62 481.60,83.62 483.85,83.60 486.11,83.59 488.37,83.61 490.62,83.63 492.88,83.66 495.14,83.67 497.39,83.68 499.65,83.70 501.91,83.70 504.16,83.71 506.42,83.72 508.68,83.70 510.93,83.70 513.19,83.72 515.45,83.75 517.70,83.78 519.96,83.81 522.22,83.84 524.47,83.87 526.73,83.90 528.98,83.92 531.24,83.95 533.50,83.95 535.75,83.98 538.01,84.00 540.27,84.04 542.52,84.08 544.78,84.10 547.04,84.11 549.29,84.12 551.55,84.13 553.81,84.16 556.06,84.19 558.32,84.17 560.58,84.19 562.83,84.19 565.09,84.19 567.35,84.21 569.60,84.21 571.86,84.23 574.12,84.24 576.37,84.25 578.63,84.28 580.89,84.28 583.14,84.28 585.40,84.30 587.66,84.32 589.91,84.33 592.17,84.34 594.43,84.37 596.68,84.39 598.94,84.42 601.20,84.44 603.45,84.45 605.71,84.47 607.97,84.50 610.22,84.53 612.48,84.55 614.74,84.55 616.99,84.56 619.25,84.58 621.51,84.60 623.76,84.57 626.02,84.59 628.28,84.60 630.53,84.61 632.79,84.62 635.05,84.64 637.30,84.66 639.56,84.68 641.82,84.70 644.07,84.71 646.33,84.73 648.59,84.74 650.84,84.75 653.10,84.77 655.36,84.78 657.61,84.80 659.87,84.79 662.13,84.79 664.38,84.80 666.64,84.81 668.90,84.81 671.15,84.77 673.41,84.77 675.67,84.78 677.92,84.77 680.18,84.77 682.43,84.75 684.69,84.75 686.95,84.76 689.20,84.76 691.46,84.74 693.72,84.72 695.97,84.72 698.23,84.72 700.49,84.73 702.74,84.75 705.00,84.75 707.26,84.77 709.51,84.78 711.77,84.80 714.03,84.80 716.28,84.82 718.54,84.82 720.80,84.84 723.05,84.84 725.31,84.84 727.57,84.84 729.82,84.83 732.08,84.83 734.34,84.81 736.59,84.81 738.85,84.80 741.11,84.79 743.36,84.80 745.62,84.81 747.88,84.83 750.13,84.84 752.39,84.86 754.65,84.88 756.90,84.89 759.16,84.91 761.42,84.92 763.67,84.93 765.93,84.94 768.19,84.93 770.44,84.95 772.70,84.96 774.96,84.97 777.21,84.99 779.47,85.00 781.73,85.00 783.98,85.01 786.24,85.01 788.50,85.02 790.75,85.04 793.01,85.06 795.27,85.07 797.52,85.08 799.78,85.09 802.04,85.11 804.29,85.12 806.55,85.14 808.81,85.16 811.06,85.17 813.32,85.19 815.58,85.20 817.83,85.21 820.09,85.23 822.35,85.24 824.60,85.21 826.86,85.22 829.12,85.22 831.37,85.23 833.63,85.24 835.88,85.22 838.14,85.23 840.40,85.23 842.65,85.22 844.91,85.19 847.17,85.18 849.42,85.19 851.68,85.20 853.94,85.20 856.19,85.19 858.45,85.19 860.71,85.19 "
       style="stroke-width: 2.13; stroke: #2E91E5; stroke-linecap: butt;"
       id="polyline10" />
    <polyline
       points="50.58,255.52 52.84,279.24 55.10,295.92 57.35,311.27 59.61,326.11 61.87,338.85 64.12,350.89 66.38,359.93 68.64,367.26 70.89,373.32 73.15,378.64 75.40,382.88 77.66,387.66 79.92,391.21 82.17,394.13 84.43,396.25 86.69,398.51 88.94,399.92 91.20,402.13 93.46,403.75 95.71,405.48 97.97,406.84 100.23,407.78 102.48,408.86 104.74,409.96 107.00,411.08 109.25,411.94 111.51,412.98 113.77,413.78 116.02,414.50 118.28,415.03 120.54,415.97 122.79,416.75 125.05,417.25 127.31,417.81 129.56,418.47 131.82,418.47 134.08,418.45 136.33,418.80 138.59,418.87 140.85,419.09 143.10,419.08 145.36,419.35 147.62,419.59 149.87,419.86 152.13,420.16 154.39,420.39 156.64,420.49 158.90,420.51 161.16,420.64 163.41,420.80 165.67,420.89 167.93,420.83 170.18,421.12 172.44,421.41 174.70,421.54 176.95,421.66 179.21,421.55 181.47,421.45 183.72,421.26 185.98,421.20 188.24,421.18 190.49,421.17 192.75,421.07 195.01,421.02 197.26,421.06 199.52,421.13 201.78,420.94 204.03,420.98 206.29,420.95 208.55,421.03 210.80,421.08 213.06,421.10 215.32,421.05 217.57,420.97 219.83,420.95 222.09,420.94 224.34,421.10 226.60,421.37 228.85,421.47 231.11,421.44 233.37,421.35 235.62,421.30 237.88,421.18 240.14,421.11 242.39,421.01 244.65,420.94 246.91,420.84 249.16,420.65 251.42,420.50 253.68,420.40 255.93,420.28 258.19,420.08 260.45,419.92 262.70,419.87 264.96,419.84 267.22,419.72 269.47,419.57 271.73,419.40 273.99,419.26 276.24,419.09 278.50,418.94 280.76,418.77 283.01,418.57 285.27,418.36 287.53,418.26 289.78,418.11 292.04,417.96 294.30,417.84 296.55,417.68 298.81,417.56 301.07,417.43 303.32,417.30 305.58,417.24 307.84,417.17 310.09,417.06 312.35,416.95 314.61,416.82 316.86,416.70 319.12,416.59 321.38,416.50 323.63,416.42 325.89,416.32 328.15,416.20 330.40,416.09 332.66,415.93 334.92,415.78 337.17,415.64 339.43,415.50 341.69,415.37 343.94,415.25 346.20,415.13 348.46,415.03 350.71,414.93 352.97,414.84 355.23,414.72 357.48,414.61 359.74,414.51 362.00,414.42 364.25,414.33 366.51,414.24 368.77,414.19 371.02,414.16 373.28,414.11 375.53,414.11 377.79,414.11 380.05,414.10 382.30,414.05 384.56,413.98 386.82,413.91 389.07,413.86 391.33,413.80 393.59,413.74 395.84,413.68 398.10,413.63 400.36,413.56 402.61,413.49 404.87,413.42 407.13,413.35 409.38,413.31 411.64,413.26 413.90,413.23 416.15,413.22 418.41,413.17 420.67,413.13 422.92,413.08 425.18,413.03 427.44,413.07 429.69,413.04 431.95,413.00 434.21,412.96 436.46,412.90 438.72,412.84 440.98,412.79 443.23,412.73 445.49,412.67 447.75,412.61 450.00,412.53 452.26,412.46 454.52,412.39 456.77,412.35 459.03,412.30 461.29,412.26 463.54,412.20 465.80,412.14 468.06,412.06 470.31,412.04 472.57,412.00 474.83,411.97 477.08,411.91 479.34,411.87 481.60,411.82 483.85,411.82 486.11,411.83 488.37,411.80 490.62,411.76 492.88,411.75 495.14,411.71 497.39,411.68 499.65,411.65 501.91,411.60 504.16,411.56 506.42,411.53 508.68,411.48 510.93,411.44 513.19,411.40 515.45,411.35 517.70,411.29 519.96,411.24 522.22,411.22 524.47,411.17 526.73,411.12 528.98,411.07 531.24,411.03 533.50,410.98 535.75,410.94 538.01,410.91 540.27,410.87 542.52,410.82 544.78,410.77 547.04,410.72 549.29,410.67 551.55,410.61 553.81,410.57 556.06,410.52 558.32,410.47 560.58,410.43 562.83,410.40 565.09,410.36 567.35,410.32 569.60,410.26 571.86,410.20 574.12,410.14 576.37,410.09 578.63,410.03 580.89,409.97 583.14,409.90 585.40,409.86 587.66,409.81 589.91,409.76 592.17,409.71 594.43,409.67 596.68,409.61 598.94,409.58 601.20,409.53 603.45,409.50 605.71,409.45 607.97,409.41 610.22,409.36 612.48,409.32 614.74,409.28 616.99,409.24 619.25,409.20 621.51,409.16 623.76,409.09 626.02,409.04 628.28,409.00 630.53,408.96 632.79,408.94 635.05,408.90 637.30,408.86 639.56,408.82 641.82,408.78 644.07,408.74 646.33,408.69 648.59,408.66 650.84,408.62 653.10,408.59 655.36,408.56 657.61,408.52 659.87,408.50 662.13,408.48 664.38,408.45 666.64,408.45 668.90,408.41 671.15,408.39 673.41,408.35 675.67,408.31 677.92,408.28 680.18,408.25 682.43,408.23 684.69,408.21 686.95,408.17 689.20,408.14 691.46,408.13 693.72,408.13 695.97,408.11 698.23,408.08 700.49,408.06 702.74,408.04 705.00,408.02 707.26,407.99 709.51,407.96 711.77,407.93 714.03,407.90 716.28,407.87 718.54,407.84 720.80,407.82 723.05,407.79 725.31,407.75 727.57,407.71 729.82,407.67 732.08,407.63 734.34,407.59 736.59,407.58 738.85,407.56 741.11,407.53 743.36,407.50 745.62,407.47 747.88,407.44 750.13,407.40 752.39,407.37 754.65,407.34 756.90,407.31 759.16,407.28 761.42,407.25 763.67,407.22 765.93,407.19 768.19,407.15 770.44,407.11 772.70,407.08 774.96,407.05 777.21,407.01 779.47,406.98 781.73,406.96 783.98,406.94 786.24,406.92 788.50,406.89 790.75,406.87 793.01,406.84 795.27,406.82 797.52,406.80 799.78,406.78 802.04,406.76 804.29,406.73 806.55,406.71 808.81,406.68 811.06,406.65 813.32,406.63 815.58,406.64 817.83,406.64 820.09,406.64 822.35,406.63 824.60,406.64 826.86,406.63 829.12,406.62 831.37,406.60 833.63,406.58 835.88,406.55 838.14,406.52 840.40,406.49 842.65,406.46 844.91,406.45 847.17,406.43 849.42,406.40 851.68,406.38 853.94,406.35 856.19,406.31 858.45,406.29 860.71,406.26 "
       style="stroke-width: 2.13; stroke: #E15F99; stroke-dasharray: 5.69,5.69; stroke-linecap: butt;"
       id="polyline11" />
    <polyline
       points="50.58,280.31 52.84,275.35 55.10,270.51 57.35,266.63 59.61,264.91 61.87,262.86 64.12,262.67 66.38,261.77 68.64,261.09 70.89,260.88 73.15,260.09 75.40,259.56 77.66,259.62 79.92,258.73 82.17,258.54 84.43,258.58 86.69,257.61 88.94,256.86 91.20,256.55 93.46,256.59 95.71,255.93 97.97,255.56 100.23,255.24 102.48,254.97 104.74,255.09 107.00,255.49 109.25,255.35 111.51,255.63 113.77,256.12 116.02,255.85 118.28,255.43 120.54,255.26 122.79,255.13 125.05,254.77 127.31,254.27 129.56,253.46 131.82,253.23 134.08,253.15 136.33,253.13 138.59,253.33 140.85,253.28 143.10,253.36 145.36,253.30 147.62,253.14 149.87,252.96 152.13,252.87 154.39,253.06 156.64,253.14 158.90,253.24 161.16,253.32 163.41,253.42 165.67,253.48 167.93,253.62 170.18,253.47 172.44,253.55 174.70,253.59 176.95,253.67 179.21,253.74 181.47,253.86 183.72,253.99 185.98,254.14 188.24,254.25 190.49,254.24 192.75,254.24 195.01,254.30 197.26,254.30 199.52,254.51 201.78,254.65 204.03,254.70 206.29,254.76 208.55,254.89 210.80,254.99 213.06,254.99 215.32,254.99 217.57,254.95 219.83,255.00 222.09,254.96 224.34,254.87 226.60,254.89 228.85,254.94 231.11,254.91 233.37,254.91 235.62,254.95 237.88,254.97 240.14,255.00 242.39,255.02 244.65,255.09 246.91,255.10 249.16,255.06 251.42,255.04 253.68,255.01 255.93,254.99 258.19,255.05 260.45,255.13 262.70,255.22 264.96,255.36 267.22,255.38 269.47,255.41 271.73,255.42 273.99,255.41 276.24,255.45 278.50,255.48 280.76,255.49 283.01,255.50 285.27,255.55 287.53,255.62 289.78,255.73 292.04,255.78 294.30,255.84 296.55,255.89 298.81,255.95 301.07,256.05 303.32,256.14 305.58,256.28 307.84,256.35 310.09,256.44 312.35,256.53 314.61,256.62 316.86,256.74 319.12,256.86 321.38,257.01 323.63,257.04 325.89,257.05 328.15,257.05 330.40,257.07 332.66,257.08 334.92,257.14 337.17,257.22 339.43,257.27 341.69,257.31 343.94,257.36 346.20,257.43 348.46,257.47 350.71,257.50 352.97,257.56 355.23,257.58 357.48,257.63 359.74,257.68 362.00,257.72 364.25,257.77 366.51,257.80 368.77,257.82 371.02,257.83 373.28,257.83 375.53,257.78 377.79,257.76 380.05,257.73 382.30,257.72 384.56,257.74 386.82,257.78 389.07,257.82 391.33,257.85 393.59,257.88 395.84,257.89 398.10,257.90 400.36,257.92 402.61,257.95 404.87,257.97 407.13,257.99 409.38,258.01 411.64,258.00 413.90,258.01 416.15,258.04 418.41,258.08 420.67,258.15 422.92,258.17 425.18,258.16 427.44,258.22 429.69,258.28 431.95,258.30 434.21,258.32 436.46,258.34 438.72,258.37 440.98,258.39 443.23,258.41 445.49,258.43 447.75,258.46 450.00,258.48 452.26,258.51 454.52,258.53 456.77,258.56 459.03,258.58 461.29,258.59 463.54,258.61 465.80,258.63 468.06,258.64 470.31,258.70 472.57,258.72 474.83,258.74 477.08,258.76 479.34,258.81 481.60,258.85 483.85,258.81 486.11,258.76 488.37,258.74 490.62,258.74 492.88,258.77 495.14,258.80 497.39,258.81 499.65,258.82 501.91,258.85 504.16,258.90 506.42,258.95 508.68,258.97 510.93,259.00 513.19,259.04 515.45,259.05 517.70,259.08 519.96,259.10 522.22,259.10 524.47,259.12 526.73,259.14 528.98,259.16 531.24,259.17 533.50,259.17 535.75,259.17 538.01,259.18 540.27,259.20 542.52,259.22 544.78,259.24 547.04,259.26 549.29,259.25 551.55,259.25 553.81,259.26 556.06,259.27 558.32,259.31 560.58,259.34 562.83,259.37 565.09,259.38 567.35,259.40 569.60,259.41 571.86,259.42 574.12,259.43 576.37,259.44 578.63,259.46 580.89,259.49 583.14,259.51 585.40,259.53 587.66,259.55 589.91,259.57 592.17,259.60 594.43,259.61 596.68,259.62 598.94,259.63 601.20,259.65 603.45,259.67 605.71,259.69 607.97,259.73 610.22,259.74 612.48,259.76 614.74,259.79 616.99,259.80 619.25,259.81 621.51,259.82 623.76,259.83 626.02,259.84 628.28,259.86 630.53,259.87 632.79,259.88 635.05,259.90 637.30,259.91 639.56,259.93 641.82,259.94 644.07,259.96 646.33,259.98 648.59,260.01 650.84,260.03 653.10,260.05 655.36,260.08 657.61,260.09 659.87,260.12 662.13,260.15 664.38,260.17 666.64,260.18 668.90,260.20 671.15,260.22 673.41,260.24 675.67,260.26 677.92,260.27 680.18,260.27 682.43,260.29 684.69,260.32 686.95,260.34 689.20,260.36 691.46,260.38 693.72,260.40 695.97,260.41 698.23,260.43 700.49,260.43 702.74,260.45 705.00,260.46 707.26,260.47 709.51,260.48 711.77,260.50 714.03,260.51 716.28,260.51 718.54,260.53 720.80,260.54 723.05,260.55 725.31,260.56 727.57,260.58 729.82,260.60 732.08,260.61 734.34,260.61 736.59,260.64 738.85,260.63 741.11,260.64 743.36,260.65 745.62,260.66 747.88,260.68 750.13,260.69 752.39,260.70 754.65,260.71 756.90,260.72 759.16,260.73 761.42,260.73 763.67,260.74 765.93,260.75 768.19,260.74 770.44,260.75 772.70,260.75 774.96,260.76 777.21,260.76 779.47,260.76 781.73,260.76 783.98,260.76 786.24,260.76 788.50,260.77 790.75,260.78 793.01,260.79 795.27,260.79 797.52,260.79 799.78,260.79 802.04,260.80 804.29,260.79 806.55,260.80 808.81,260.80 811.06,260.80 813.32,260.81 815.58,260.79 817.83,260.79 820.09,260.77 822.35,260.76 824.60,260.71 826.86,260.68 829.12,260.65 831.37,260.63 833.63,260.62 835.88,260.61 838.14,260.60 840.40,260.59 842.65,260.56 844.91,260.57 847.17,260.57 849.42,260.57 851.68,260.58 853.94,260.58 856.19,260.59 858.45,260.59 860.71,260.59 "
       style="stroke-width: 2.13; stroke: #1CA71C; stroke-linecap: butt;"
       id="polyline12" />
    <polyline
       points="50.58,375.98 52.84,344.95 55.10,322.23 57.35,300.29 59.61,280.54 61.87,262.86 64.12,247.97 66.38,233.80 68.64,221.91 70.89,212.70 73.15,203.00 75.40,195.26 77.66,188.86 79.92,181.38 82.17,175.11 84.43,170.36 86.69,165.28 88.94,160.20 91.20,155.43 93.46,150.69 95.71,147.07 97.97,143.38 100.23,140.58 102.48,137.80 104.74,134.94 107.00,132.48 109.25,130.47 111.51,127.87 113.77,125.88 116.02,124.06 118.28,122.31 120.54,120.71 122.79,119.50 125.05,118.16 127.31,117.30 129.56,115.95 131.82,115.25 134.08,113.98 136.33,112.78 138.59,111.96 140.85,111.29 143.10,110.69 145.36,109.96 147.62,109.12 149.87,108.43 152.13,107.71 154.39,106.94 156.64,106.28 158.90,105.72 161.16,105.15 163.41,104.56 165.67,104.12 167.93,103.63 170.18,103.05 172.44,102.36 174.70,102.12 176.95,101.67 179.21,101.38 181.47,100.95 183.72,100.50 185.98,100.04 188.24,99.48 190.49,98.92 192.75,98.46 195.01,97.86 197.26,97.34 199.52,96.52 201.78,96.06 204.03,95.66 206.29,95.34 208.55,94.86 210.80,94.50 213.06,94.14 215.32,93.85 217.57,93.50 219.83,93.30 222.09,93.08 224.34,92.61 226.60,92.23 228.85,91.96 231.11,91.82 233.37,91.73 235.62,91.58 237.88,91.42 240.14,91.23 242.39,91.12 244.65,90.93 246.91,90.59 249.16,90.36 251.42,90.24 253.68,90.07 255.93,89.92 258.19,89.73 260.45,89.54 262.70,89.31 264.96,89.15 267.22,89.02 269.47,88.97 271.73,88.91 273.99,88.77 276.24,88.64 278.50,88.60 280.76,88.49 283.01,88.43 285.27,88.37 287.53,88.23 289.78,88.15 292.04,88.06 294.30,88.01 296.55,87.89 298.81,87.84 301.07,87.79 303.32,87.74 305.58,87.70 307.84,87.67 310.09,87.68 312.35,87.69 314.61,87.66 316.86,87.52 319.12,87.42 321.38,87.31 323.63,87.13 325.89,87.02 328.15,86.90 330.40,86.83 332.66,86.79 334.92,86.76 337.17,86.75 339.43,86.75 341.69,86.76 343.94,86.73 346.20,86.68 348.46,86.66 350.71,86.61 352.97,86.52 355.23,86.50 357.48,86.47 359.74,86.39 362.00,86.39 364.25,86.37 366.51,86.37 368.77,86.38 371.02,86.33 373.28,86.26 375.53,86.10 377.79,86.03 380.05,85.93 382.30,85.90 384.56,85.90 386.82,85.90 389.07,85.92 391.33,85.94 393.59,85.93 395.84,85.92 398.10,85.92 400.36,85.91 402.61,85.92 404.87,85.91 407.13,85.90 409.38,85.87 411.64,85.85 413.90,85.83 416.15,85.80 418.41,85.79 420.67,85.74 422.92,85.75 425.18,85.76 427.44,85.75 429.69,85.77 431.95,85.79 434.21,85.80 436.46,85.80 438.72,85.81 440.98,85.84 443.23,85.85 445.49,85.85 447.75,85.86 450.00,85.88 452.26,85.88 454.52,85.88 456.77,85.88 459.03,85.90 461.29,85.89 463.54,85.92 465.80,85.94 468.06,85.94 470.31,85.91 472.57,85.93 474.83,85.92 477.08,85.93 479.34,85.90 481.60,85.92 483.85,85.90 486.11,85.88 488.37,85.89 490.62,85.91 492.88,85.90 495.14,85.88 497.39,85.89 499.65,85.91 501.91,85.91 504.16,85.90 506.42,85.88 508.68,85.90 510.93,85.93 513.19,85.96 515.45,85.97 517.70,86.00 519.96,86.01 522.22,86.05 524.47,86.07 526.73,86.09 528.98,86.11 531.24,86.13 533.50,86.12 535.75,86.15 538.01,86.17 540.27,86.20 542.52,86.22 544.78,86.24 547.04,86.26 549.29,86.26 551.55,86.26 553.81,86.27 556.06,86.29 558.32,86.28 560.58,86.29 562.83,86.30 565.09,86.25 567.35,86.22 569.60,86.19 571.86,86.17 574.12,86.16 576.37,86.16 578.63,86.16 580.89,86.13 583.14,86.10 585.40,86.09 587.66,86.08 589.91,86.08 592.17,86.09 594.43,86.10 596.68,86.11 598.94,86.11 601.20,86.13 603.45,86.15 605.71,86.17 607.97,86.19 610.22,86.21 612.48,86.23 614.74,86.24 616.99,86.25 619.25,86.26 621.51,86.27 623.76,86.24 626.02,86.26 628.28,86.27 630.53,86.29 632.79,86.27 635.05,86.29 637.30,86.29 639.56,86.31 641.82,86.32 644.07,86.32 646.33,86.33 648.59,86.33 650.84,86.34 653.10,86.36 655.36,86.36 657.61,86.36 659.87,86.33 662.13,86.31 664.38,86.30 666.64,86.31 668.90,86.31 671.15,86.29 673.41,86.29 675.67,86.27 677.92,86.27 680.18,86.24 682.43,86.25 684.69,86.22 686.95,86.23 689.20,86.23 691.46,86.24 693.72,86.25 695.97,86.26 698.23,86.26 700.49,86.27 702.74,86.28 705.00,86.29 707.26,86.31 709.51,86.33 711.77,86.34 714.03,86.35 716.28,86.37 718.54,86.38 720.80,86.39 723.05,86.41 725.31,86.42 727.57,86.42 729.82,86.41 732.08,86.41 734.34,86.39 736.59,86.39 738.85,86.35 741.11,86.35 743.36,86.36 745.62,86.37 747.88,86.37 750.13,86.38 752.39,86.39 754.65,86.40 756.90,86.40 759.16,86.41 761.42,86.38 763.67,86.38 765.93,86.37 768.19,86.36 770.44,86.37 772.70,86.38 774.96,86.39 777.21,86.39 779.47,86.40 781.73,86.41 783.98,86.43 786.24,86.44 788.50,86.45 790.75,86.46 793.01,86.48 795.27,86.49 797.52,86.50 799.78,86.51 802.04,86.52 804.29,86.53 806.55,86.54 808.81,86.56 811.06,86.57 813.32,86.58 815.58,86.54 817.83,86.50 820.09,86.47 822.35,86.43 824.60,86.34 826.86,86.29 829.12,86.25 831.37,86.23 833.63,86.22 835.88,86.18 838.14,86.17 840.40,86.17 842.65,86.15 844.91,86.11 847.17,86.10 849.42,86.10 851.68,86.10 853.94,86.09 856.19,86.08 858.45,86.08 860.71,86.07 "
       style="stroke-width: 2.13; stroke: #1CA71C; stroke-dasharray: 5.69,5.69; stroke-linecap: butt;"
       id="polyline13" />
    <polyline
       points="50.58,276.32 52.84,274.43 55.10,274.98 57.35,275.76 59.61,275.45 61.87,275.50 64.12,275.11 66.38,276.21 68.64,275.96 70.89,275.86 73.15,276.41 75.40,276.74 77.66,276.06 79.92,275.44 82.17,275.83 84.43,276.49 86.69,277.15 88.94,278.05 91.20,278.60 93.46,279.03 95.71,279.24 97.97,278.91 100.23,278.49 102.48,278.10 104.74,277.91 107.00,277.93 109.25,277.78 111.51,277.85 113.77,277.64 116.02,277.38 118.28,276.96 120.54,276.25 122.79,276.32 125.05,276.35 127.31,276.57 129.56,276.71 131.82,276.86 134.08,277.16 136.33,277.28 138.59,277.61 140.85,277.76 143.10,277.78 145.36,277.97 147.62,278.10 149.87,277.90 152.13,277.96 154.39,278.23 156.64,278.41 158.90,278.72 161.16,278.99 163.41,279.07 165.67,279.10 167.93,279.09 170.18,279.06 172.44,278.88 174.70,278.97 176.95,279.00 179.21,278.97 181.47,279.03 183.72,279.00 185.98,278.97 188.24,278.99 190.49,278.92 192.75,278.96 195.01,278.96 197.26,279.10 199.52,279.15 201.78,279.17 204.03,279.25 206.29,279.23 208.55,279.28 210.80,279.32 213.06,279.32 215.32,279.31 217.57,279.31 219.83,279.17 222.09,279.11 224.34,279.05 226.60,279.07 228.85,278.88 231.11,278.91 233.37,278.90 235.62,278.81 237.88,278.80 240.14,278.82 242.39,278.82 244.65,278.78 246.91,278.76 249.16,278.79 251.42,278.79 253.68,278.79 255.93,278.75 258.19,278.76 260.45,278.73 262.70,278.64 264.96,278.57 267.22,278.49 269.47,278.46 271.73,278.42 273.99,278.34 276.24,278.31 278.50,278.27 280.76,278.22 283.01,278.17 285.27,278.12 287.53,278.18 289.78,278.20 292.04,278.20 294.30,278.16 296.55,278.14 298.81,278.12 301.07,278.08 303.32,278.02 305.58,277.96 307.84,278.00 310.09,277.98 312.35,277.96 314.61,277.91 316.86,277.87 319.12,277.88 321.38,277.91 323.63,277.91 325.89,277.89 328.15,277.93 330.40,277.94 332.66,277.92 334.92,277.94 337.17,277.97 339.43,277.97 341.69,277.96 343.94,277.95 346.20,277.92 348.46,277.87 350.71,277.81 352.97,277.79 355.23,277.74 357.48,277.70 359.74,277.70 362.00,277.69 364.25,277.67 366.51,277.67 368.77,277.69 371.02,277.74 373.28,277.83 375.53,277.96 377.79,278.02 380.05,278.06 382.30,278.07 384.56,278.11 386.82,278.17 389.07,278.20 391.33,278.22 393.59,278.21 395.84,278.20 398.10,278.24 400.36,278.28 402.61,278.31 404.87,278.33 407.13,278.34 409.38,278.36 411.64,278.37 413.90,278.36 416.15,278.35 418.41,278.36 420.67,278.35 422.92,278.35 425.18,278.32 427.44,278.34 429.69,278.36 431.95,278.36 434.21,278.38 436.46,278.39 438.72,278.38 440.98,278.39 443.23,278.41 445.49,278.43 447.75,278.44 450.00,278.45 452.26,278.48 454.52,278.50 456.77,278.52 459.03,278.53 461.29,278.56 463.54,278.58 465.80,278.58 468.06,278.57 470.31,278.53 472.57,278.53 474.83,278.53 477.08,278.52 479.34,278.49 481.60,278.47 483.85,278.50 486.11,278.55 488.37,278.56 490.62,278.57 492.88,278.56 495.14,278.58 497.39,278.58 499.65,278.58 501.91,278.57 504.16,278.57 506.42,278.55 508.68,278.52 510.93,278.54 513.19,278.53 515.45,278.52 517.70,278.52 519.96,278.50 522.22,278.50 524.47,278.48 526.73,278.46 528.98,278.45 531.24,278.43 533.50,278.42 535.75,278.41 538.01,278.42 540.27,278.42 542.52,278.41 544.78,278.41 547.04,278.42 549.29,278.42 551.55,278.42 553.81,278.41 556.06,278.40 558.32,278.41 560.58,278.42 562.83,278.43 565.09,278.45 567.35,278.46 569.60,278.46 571.86,278.46 574.12,278.48 576.37,278.48 578.63,278.48 580.89,278.47 583.14,278.47 585.40,278.46 587.66,278.45 589.91,278.45 592.17,278.44 594.43,278.43 596.68,278.42 598.94,278.41 601.20,278.41 603.45,278.42 605.71,278.43 607.97,278.44 610.22,278.44 612.48,278.44 614.74,278.46 616.99,278.47 619.25,278.47 621.51,278.47 623.76,278.47 626.02,278.47 628.28,278.46 630.53,278.46 632.79,278.44 635.05,278.44 637.30,278.43 639.56,278.43 641.82,278.42 644.07,278.43 646.33,278.43 648.59,278.43 650.84,278.43 653.10,278.42 655.36,278.42 657.61,278.41 659.87,278.39 662.13,278.39 664.38,278.38 666.64,278.37 668.90,278.36 671.15,278.35 673.41,278.35 675.67,278.34 677.92,278.35 680.18,278.34 682.43,278.35 684.69,278.34 686.95,278.34 689.20,278.33 691.46,278.34 693.72,278.34 695.97,278.33 698.23,278.32 700.49,278.31 702.74,278.31 705.00,278.31 707.26,278.30 709.51,278.29 711.77,278.29 714.03,278.28 716.28,278.28 718.54,278.28 720.80,278.27 723.05,278.26 725.31,278.25 727.57,278.24 729.82,278.23 732.08,278.23 734.34,278.24 736.59,278.24 738.85,278.26 741.11,278.27 743.36,278.27 745.62,278.27 747.88,278.27 750.13,278.27 752.39,278.27 754.65,278.27 756.90,278.27 759.16,278.27 761.42,278.25 763.67,278.25 765.93,278.25 768.19,278.25 770.44,278.25 772.70,278.25 774.96,278.24 777.21,278.24 779.47,278.24 781.73,278.24 783.98,278.24 786.24,278.24 788.50,278.23 790.75,278.23 793.01,278.23 795.27,278.23 797.52,278.23 799.78,278.23 802.04,278.23 804.29,278.23 806.55,278.23 808.81,278.23 811.06,278.23 813.32,278.23 815.58,278.21 817.83,278.20 820.09,278.18 822.35,278.16 824.60,278.14 826.86,278.13 829.12,278.12 831.37,278.11 833.63,278.11 835.88,278.13 838.14,278.13 840.40,278.14 842.65,278.15 844.91,278.14 847.17,278.13 849.42,278.13 851.68,278.13 853.94,278.14 856.19,278.16 858.45,278.16 860.71,278.17 "
       style="stroke-width: 2.13; stroke: #FB0D0D; stroke-linecap: butt;"
       id="polyline14" />
    <polyline
       points="50.58,209.12 52.84,191.92 55.10,180.01 57.35,170.65 59.61,160.91 61.87,153.47 64.12,148.44 66.38,145.37 68.64,142.96 70.89,141.34 73.15,140.93 75.40,141.07 77.66,141.60 79.92,142.86 82.17,144.07 84.43,144.91 86.69,145.64 88.94,146.90 91.20,148.42 93.46,150.05 95.71,151.91 97.97,152.86 100.23,153.35 102.48,154.28 104.74,155.62 107.00,156.68 109.25,157.96 111.51,159.25 113.77,160.64 116.02,161.82 118.28,163.60 120.54,165.05 122.79,165.93 125.05,167.14 127.31,168.32 129.56,169.44 131.82,170.44 134.08,171.56 136.33,172.83 138.59,173.98 140.85,175.04 143.10,176.07 145.36,177.03 147.62,178.07 149.87,179.17 152.13,180.34 154.39,181.40 156.64,182.56 158.90,183.59 161.16,184.66 163.41,185.94 165.67,187.20 167.93,188.29 170.18,189.52 172.44,190.88 174.70,191.91 176.95,192.82 179.21,193.69 181.47,194.52 183.72,195.47 185.98,196.36 188.24,197.26 190.49,197.99 192.75,198.76 195.01,199.55 197.26,200.33 199.52,201.07 201.78,201.68 204.03,202.39 206.29,203.23 208.55,203.78 210.80,204.52 213.06,205.30 215.32,206.09 217.57,206.78 219.83,207.36 222.09,207.96 224.34,208.49 226.60,209.04 228.85,209.64 231.11,210.26 233.37,210.80 235.62,211.35 237.88,211.90 240.14,212.54 242.39,213.12 244.65,213.70 246.91,214.19 249.16,214.71 251.42,215.26 253.68,215.81 255.93,216.37 258.19,216.91 260.45,217.40 262.70,217.82 264.96,218.22 267.22,218.70 269.47,219.18 271.73,219.61 273.99,220.04 276.24,220.47 278.50,220.86 280.76,221.27 283.01,221.68 285.27,222.07 287.53,222.55 289.78,222.96 292.04,223.42 294.30,223.88 296.55,224.31 298.81,224.76 301.07,225.18 303.32,225.59 305.58,225.96 307.84,226.33 310.09,226.74 312.35,227.10 314.61,227.46 316.86,227.82 319.12,228.20 321.38,228.56 323.63,228.91 325.89,229.27 328.15,229.64 330.40,229.98 332.66,230.32 334.92,230.64 337.17,230.94 339.43,231.26 341.69,231.56 343.94,231.85 346.20,232.13 348.46,232.41 350.71,232.63 352.97,232.88 355.23,233.16 357.48,233.45 359.74,233.74 362.00,234.01 364.25,234.29 366.51,234.55 368.77,234.78 371.02,235.05 373.28,235.25 375.53,235.51 377.79,235.81 380.05,236.14 382.30,236.43 384.56,236.70 386.82,236.97 389.07,237.23 391.33,237.48 393.59,237.74 395.84,238.00 398.10,238.27 400.36,238.51 402.61,238.76 404.87,238.99 407.13,239.21 409.38,239.44 411.64,239.66 413.90,239.90 416.15,240.15 418.41,240.37 420.67,240.61 422.92,240.83 425.18,241.02 427.44,241.19 429.69,241.40 431.95,241.62 434.21,241.86 436.46,242.08 438.72,242.29 440.98,242.49 443.23,242.69 445.49,242.91 447.75,243.12 450.00,243.31 452.26,243.53 454.52,243.74 456.77,243.95 459.03,244.17 461.29,244.40 463.54,244.60 465.80,244.80 468.06,245.00 470.31,245.21 472.57,245.40 474.83,245.60 477.08,245.78 479.34,245.96 481.60,246.15 483.85,246.33 486.11,246.56 488.37,246.77 490.62,246.96 492.88,247.15 495.14,247.35 497.39,247.55 499.65,247.74 501.91,247.94 504.16,248.14 506.42,248.31 508.68,248.49 510.93,248.67 513.19,248.83 515.45,249.01 517.70,249.17 519.96,249.33 522.22,249.50 524.47,249.67 526.73,249.83 528.98,250.01 531.24,250.16 533.50,250.33 535.75,250.50 538.01,250.67 540.27,250.83 542.52,250.99 544.78,251.16 547.04,251.32 549.29,251.47 551.55,251.64 553.81,251.80 556.06,251.95 558.32,252.09 560.58,252.24 562.83,252.40 565.09,252.53 567.35,252.68 569.60,252.82 571.86,252.97 574.12,253.12 576.37,253.26 578.63,253.41 580.89,253.58 583.14,253.74 585.40,253.87 587.66,254.02 589.91,254.17 592.17,254.32 594.43,254.45 596.68,254.57 598.94,254.71 601.20,254.85 603.45,254.99 605.71,255.12 607.97,255.23 610.22,255.36 612.48,255.49 614.74,255.63 616.99,255.76 619.25,255.90 621.51,256.03 623.76,256.16 626.02,256.29 628.28,256.43 630.53,256.56 632.79,256.69 635.05,256.82 637.30,256.95 639.56,257.08 641.82,257.20 644.07,257.33 646.33,257.46 648.59,257.59 650.84,257.71 653.10,257.84 655.36,257.96 657.61,258.09 659.87,258.21 662.13,258.35 664.38,258.48 666.64,258.63 668.90,258.76 671.15,258.90 673.41,259.02 675.67,259.15 677.92,259.28 680.18,259.43 682.43,259.57 684.69,259.71 686.95,259.84 689.20,259.96 691.46,260.08 693.72,260.22 695.97,260.34 698.23,260.47 700.49,260.59 702.74,260.71 705.00,260.84 707.26,260.96 709.51,261.08 711.77,261.19 714.03,261.32 716.28,261.43 718.54,261.55 720.80,261.66 723.05,261.78 725.31,261.89 727.57,262.00 729.82,262.09 732.08,262.19 734.34,262.31 736.59,262.43 738.85,262.55 741.11,262.65 743.36,262.76 745.62,262.86 747.88,262.95 750.13,263.06 752.39,263.16 754.65,263.26 756.90,263.37 759.16,263.47 761.42,263.58 763.67,263.68 765.93,263.78 768.19,263.88 770.44,263.98 772.70,264.07 774.96,264.16 777.21,264.26 779.47,264.35 781.73,264.45 783.98,264.55 786.24,264.65 788.50,264.75 790.75,264.85 793.01,264.95 795.27,265.04 797.52,265.13 799.78,265.22 802.04,265.31 804.29,265.40 806.55,265.49 808.81,265.58 811.06,265.68 813.32,265.77 815.58,265.85 817.83,265.95 820.09,266.06 822.35,266.16 824.60,266.21 826.86,266.28 829.12,266.36 831.37,266.44 833.63,266.53 835.88,266.59 838.14,266.66 840.40,266.74 842.65,266.78 844.91,266.85 847.17,266.93 849.42,267.01 851.68,267.09 853.94,267.17 856.19,267.25 858.45,267.34 860.71,267.42 "
       style="stroke-width: 2.13; stroke: #FB0D0D; stroke-dasharray: 5.69,5.69; stroke-linecap: butt;"
       id="polyline15" />
    <polyline
       points="50.58,278.82 52.84,279.75 55.10,280.47 57.35,281.83 59.61,282.26 61.87,281.20 64.12,280.31 66.38,280.43 68.64,280.11 70.89,280.35 73.15,280.82 75.40,280.72 77.66,281.58 79.92,282.07 82.17,282.33 84.43,283.21 86.69,283.79 88.94,284.87 91.20,285.08 93.46,285.48 95.71,286.12 97.97,286.31 100.23,286.29 102.48,286.12 104.74,285.62 107.00,285.34 109.25,284.91 111.51,284.32 113.77,284.02 116.02,283.96 118.28,284.05 120.54,283.98 122.79,283.92 125.05,284.09 127.31,284.17 129.56,284.18 131.82,283.89 134.08,283.73 136.33,283.63 138.59,283.49 140.85,283.35 143.10,283.19 145.36,282.90 147.62,282.68 149.87,282.33 152.13,282.19 154.39,282.18 156.64,282.09 158.90,282.22 161.16,282.24 163.41,282.08 165.67,281.96 167.93,281.81 170.18,281.82 172.44,281.70 174.70,281.59 176.95,281.53 179.21,281.50 181.47,281.44 183.72,281.47 185.98,281.46 188.24,281.46 190.49,281.24 192.75,281.24 195.01,281.19 197.26,281.09 199.52,281.24 201.78,281.20 204.03,281.31 206.29,281.35 208.55,281.44 210.80,281.60 213.06,281.67 215.32,281.73 217.57,281.68 219.83,281.67 222.09,281.67 224.34,281.52 226.60,281.31 228.85,281.17 231.11,281.17 233.37,281.12 235.62,281.13 237.88,281.15 240.14,281.18 242.39,281.20 244.65,281.25 246.91,281.41 249.16,281.45 251.42,281.50 253.68,281.51 255.93,281.52 258.19,281.53 260.45,281.57 262.70,281.57 264.96,281.50 267.22,281.51 269.47,281.53 271.73,281.57 273.99,281.61 276.24,281.61 278.50,281.63 280.76,281.63 283.01,281.69 285.27,281.71 287.53,281.66 289.78,281.67 292.04,281.71 294.30,281.69 296.55,281.71 298.81,281.72 301.07,281.70 303.32,281.71 305.58,281.63 307.84,281.67 310.09,281.66 312.35,281.69 314.61,281.74 316.86,281.79 319.12,281.81 321.38,281.82 323.63,281.85 325.89,281.91 328.15,281.91 330.40,281.91 332.66,281.91 334.92,281.90 337.17,281.93 339.43,281.94 341.69,281.95 343.94,281.96 346.20,281.93 348.46,281.95 350.71,281.97 352.97,281.99 355.23,282.03 357.48,282.08 359.74,282.11 362.00,282.14 364.25,282.17 366.51,282.20 368.77,282.24 371.02,282.30 373.28,282.33 375.53,282.37 377.79,282.39 380.05,282.39 382.30,282.42 384.56,282.44 386.82,282.45 389.07,282.46 391.33,282.48 393.59,282.51 395.84,282.54 398.10,282.54 400.36,282.58 402.61,282.62 404.87,282.65 407.13,282.67 409.38,282.73 411.64,282.77 413.90,282.78 416.15,282.76 418.41,282.77 420.67,282.78 422.92,282.78 425.18,282.77 427.44,282.88 429.69,282.95 431.95,282.98 434.21,283.00 436.46,283.01 438.72,283.03 440.98,283.03 443.23,283.05 445.49,283.08 447.75,283.11 450.00,283.12 452.26,283.15 454.52,283.17 456.77,283.19 459.03,283.19 461.29,283.19 463.54,283.20 465.80,283.22 468.06,283.25 470.31,283.28 472.57,283.30 474.83,283.34 477.08,283.35 479.34,283.38 481.60,283.39 483.85,283.36 486.11,283.34 488.37,283.32 490.62,283.33 492.88,283.34 495.14,283.35 497.39,283.35 499.65,283.35 501.91,283.36 504.16,283.37 506.42,283.36 508.68,283.37 510.93,283.37 513.19,283.37 515.45,283.37 517.70,283.38 519.96,283.39 522.22,283.42 524.47,283.43 526.73,283.44 528.98,283.45 531.24,283.45 533.50,283.45 535.75,283.45 538.01,283.45 540.27,283.44 542.52,283.45 544.78,283.45 547.04,283.45 549.29,283.47 551.55,283.48 553.81,283.48 556.06,283.49 558.32,283.51 560.58,283.52 562.83,283.52 565.09,283.48 567.35,283.48 569.60,283.46 571.86,283.46 574.12,283.45 576.37,283.44 578.63,283.44 580.89,283.43 583.14,283.43 585.40,283.42 587.66,283.42 589.91,283.42 592.17,283.42 594.43,283.44 596.68,283.46 598.94,283.46 601.20,283.46 603.45,283.45 605.71,283.45 607.97,283.45 610.22,283.45 612.48,283.45 614.74,283.45 616.99,283.45 619.25,283.45 621.51,283.45 623.76,283.44 626.02,283.44 628.28,283.43 630.53,283.43 632.79,283.46 635.05,283.47 637.30,283.48 639.56,283.48 641.82,283.50 644.07,283.50 646.33,283.51 648.59,283.50 650.84,283.49 653.10,283.50 655.36,283.51 657.61,283.50 659.87,283.53 662.13,283.56 664.38,283.57 666.64,283.58 668.90,283.59 671.15,283.59 673.41,283.59 675.67,283.59 677.92,283.59 680.18,283.60 682.43,283.60 684.69,283.62 686.95,283.63 689.20,283.64 691.46,283.65 693.72,283.67 695.97,283.67 698.23,283.67 700.49,283.68 702.74,283.68 705.00,283.69 707.26,283.69 709.51,283.70 711.77,283.70 714.03,283.70 716.28,283.70 718.54,283.71 720.80,283.72 723.05,283.74 725.31,283.75 727.57,283.76 729.82,283.74 732.08,283.73 734.34,283.70 736.59,283.71 738.85,283.70 741.11,283.69 743.36,283.69 745.62,283.68 747.88,283.67 750.13,283.66 752.39,283.66 754.65,283.66 756.90,283.66 759.16,283.66 761.42,283.68 763.67,283.68 765.93,283.69 768.19,283.69 770.44,283.69 772.70,283.68 774.96,283.68 777.21,283.69 779.47,283.68 781.73,283.70 783.98,283.72 786.24,283.72 788.50,283.73 790.75,283.73 793.01,283.74 795.27,283.74 797.52,283.74 799.78,283.74 802.04,283.75 804.29,283.76 806.55,283.77 808.81,283.77 811.06,283.78 813.32,283.79 815.58,283.80 817.83,283.81 820.09,283.84 822.35,283.85 824.60,283.86 826.86,283.87 829.12,283.89 831.37,283.90 833.63,283.92 835.88,283.94 838.14,283.95 840.40,283.96 842.65,283.99 844.91,283.99 847.17,283.99 849.42,283.99 851.68,284.00 853.94,284.01 856.19,284.02 858.45,284.03 860.71,284.03 "
       style="stroke-width: 2.13; stroke: #DA16FF; stroke-linecap: butt;"
       id="polyline16" />
    <polyline
       points="50.58,6.97 52.84,9.19 55.10,10.51 57.35,15.52 59.61,23.94 61.87,33.88 64.12,44.12 66.38,53.99 68.64,63.77 70.89,72.83 73.15,82.25 75.40,90.26 77.66,98.17 79.92,105.85 82.17,113.35 84.43,119.86 86.69,127.12 88.94,133.48 91.20,139.70 93.46,145.98 95.71,151.95 97.97,158.25 100.23,164.07 102.48,169.72 104.74,175.09 107.00,180.21 109.25,184.87 111.51,189.71 113.77,194.07 116.02,198.21 118.28,202.00 120.54,206.03 122.79,210.13 125.05,214.03 127.31,217.31 129.56,221.32 131.82,224.60 134.08,228.05 136.33,231.49 138.59,234.69 140.85,237.57 143.10,240.20 145.36,243.02 147.62,245.93 149.87,248.56 152.13,251.25 154.39,253.67 156.64,256.03 158.90,258.40 161.16,261.01 163.41,263.59 165.67,265.94 167.93,268.28 170.18,270.67 172.44,272.96 174.70,274.76 176.95,276.74 179.21,278.56 181.47,280.51 183.72,282.31 185.98,284.11 188.24,285.94 190.49,287.72 192.75,289.41 195.01,291.27 197.26,293.20 199.52,295.57 201.78,297.37 204.03,299.17 206.29,300.79 208.55,302.48 210.80,304.04 213.06,305.53 215.32,306.90 217.57,308.34 219.83,309.78 222.09,311.19 224.34,312.85 226.60,314.53 228.85,316.11 231.11,317.32 233.37,318.50 235.62,319.77 237.88,320.97 240.14,322.11 242.39,323.16 244.65,324.29 246.91,325.54 249.16,326.70 251.42,327.79 253.68,328.92 255.93,330.02 258.19,331.07 260.45,332.14 262.70,333.22 264.96,334.38 267.22,335.38 269.47,336.26 271.73,337.13 273.99,338.06 276.24,338.97 278.50,339.84 280.76,340.77 283.01,341.67 285.27,342.52 287.53,343.41 289.78,344.27 292.04,345.08 294.30,345.88 296.55,346.66 298.81,347.42 301.07,348.19 303.32,348.93 305.58,349.77 307.84,350.59 310.09,351.32 312.35,352.02 314.61,352.79 316.86,353.59 319.12,354.33 321.38,355.12 323.63,355.90 325.89,356.68 328.15,357.45 330.40,358.19 332.66,358.89 334.92,359.53 337.17,360.14 339.43,360.71 341.69,361.25 343.94,361.81 346.20,362.39 348.46,362.94 350.71,363.55 352.97,364.18 355.23,364.77 357.48,365.33 359.74,365.94 362.00,366.48 364.25,367.05 366.51,367.58 368.77,368.11 371.02,368.65 373.28,369.27 375.53,369.95 377.79,370.60 380.05,371.21 382.30,371.77 384.56,372.27 386.82,372.80 389.07,373.27 391.33,373.73 393.59,374.19 395.84,374.66 398.10,375.14 400.36,375.59 402.61,376.01 404.87,376.44 407.13,376.85 409.38,377.33 411.64,377.78 413.90,378.18 416.15,378.61 418.41,379.02 420.67,379.44 422.92,379.84 425.18,380.25 427.44,380.77 429.69,381.20 431.95,381.57 434.21,381.93 436.46,382.28 438.72,382.65 440.98,383.01 443.23,383.34 445.49,383.69 447.75,384.03 450.00,384.39 452.26,384.75 454.52,385.12 456.77,385.47 459.03,385.79 461.29,386.12 463.54,386.44 465.80,386.75 468.06,387.07 470.31,387.43 472.57,387.75 474.83,388.12 477.08,388.47 479.34,388.82 481.60,389.14 483.85,389.50 486.11,389.92 488.37,390.27 490.62,390.60 492.88,390.93 495.14,391.26 497.39,391.57 499.65,391.87 501.91,392.18 504.16,392.51 506.42,392.84 508.68,393.16 510.93,393.46 513.19,393.76 515.45,394.04 517.70,394.32 519.96,394.60 522.22,394.89 524.47,395.16 526.73,395.43 528.98,395.70 531.24,395.97 533.50,396.28 535.75,396.55 538.01,396.83 540.27,397.09 542.52,397.35 544.78,397.62 547.04,397.89 549.29,398.18 551.55,398.47 553.81,398.73 556.06,398.99 558.32,399.28 560.58,399.54 562.83,399.82 565.09,400.13 567.35,400.42 569.60,400.72 571.86,401.01 574.12,401.29 576.37,401.56 578.63,401.82 580.89,402.11 583.14,402.40 585.40,402.67 587.66,402.94 589.91,403.20 592.17,403.45 594.43,403.69 596.68,403.94 598.94,404.17 601.20,404.40 603.45,404.65 605.71,404.89 607.97,405.13 610.22,405.35 612.48,405.56 614.74,405.79 616.99,406.00 619.25,406.22 621.51,406.44 623.76,406.70 626.02,406.92 628.28,407.14 630.53,407.36 632.79,407.61 635.05,407.82 637.30,408.04 639.56,408.25 641.82,408.47 644.07,408.68 646.33,408.89 648.59,409.10 650.84,409.32 653.10,409.52 655.36,409.74 657.61,409.95 659.87,410.18 662.13,410.41 664.38,410.62 666.64,410.85 668.90,411.07 671.15,411.32 673.41,411.54 675.67,411.77 677.92,411.99 680.18,412.22 682.43,412.45 684.69,412.67 686.95,412.89 689.20,413.09 691.46,413.31 693.72,413.53 695.97,413.74 698.23,413.93 700.49,414.13 702.74,414.33 705.00,414.52 707.26,414.71 709.51,414.89 711.77,415.06 714.03,415.24 716.28,415.42 718.54,415.59 720.80,415.76 723.05,415.96 725.31,416.14 727.57,416.32 729.82,416.52 732.08,416.71 734.34,416.91 736.59,417.11 738.85,417.32 741.11,417.51 743.36,417.70 745.62,417.89 747.88,418.07 750.13,418.25 752.39,418.42 754.65,418.60 756.90,418.78 759.16,418.96 761.42,419.16 763.67,419.34 765.93,419.53 768.19,419.73 770.44,419.91 772.70,420.09 774.96,420.26 777.21,420.43 779.47,420.60 781.73,420.78 783.98,420.95 786.24,421.12 788.50,421.29 790.75,421.45 793.01,421.61 795.27,421.76 797.52,421.94 799.78,422.11 802.04,422.27 804.29,422.46 806.55,422.61 808.81,422.76 811.06,422.91 813.32,423.07 815.58,423.25 817.83,423.46 820.09,423.67 822.35,423.88 824.60,424.11 826.86,424.33 829.12,424.55 831.37,424.74 833.63,424.92 835.88,425.11 838.14,425.28 840.40,425.44 842.65,425.63 844.91,425.82 847.17,425.98 849.42,426.15 851.68,426.31 853.94,426.47 856.19,426.65 858.45,426.82 860.71,426.98 "
       style="stroke-width: 2.13; stroke: #DA16FF; stroke-dasharray: 5.69,5.69; stroke-linecap: butt;"
       id="polyline17" />
    <line
       x1="50.58"
       y1="281.70"
       x2="860.71"
       y2="281.70"
       style="stroke-width: 1.07; stroke-linecap: butt;"
       id="line17" />
    <polygon
       points="50.58,280.20 52.84,279.54 55.10,279.56 57.35,278.49 59.61,277.93 61.87,277.28 64.12,277.02 66.38,276.37 68.64,276.02 70.89,274.68 73.15,274.32 75.40,274.34 77.66,274.38 79.92,274.35 82.17,274.81 84.43,274.72 86.69,275.29 88.94,275.89 91.20,275.70 93.46,275.86 95.71,275.47 97.97,275.23 100.23,275.10 102.48,275.30 104.74,276.03 107.00,276.47 109.25,276.78 111.51,277.34 113.77,277.39 116.02,277.78 118.28,277.98 120.54,277.83 122.79,278.09 125.05,278.26 127.31,278.29 129.56,278.69 131.82,278.90 134.08,278.95 136.33,278.90 138.59,278.86 140.85,278.75 143.10,278.57 145.36,278.64 147.62,278.91 149.87,279.09 152.13,279.13 154.39,279.35 156.64,279.54 158.90,279.80 161.16,279.86 163.41,279.71 165.67,279.55 167.93,279.43 170.18,279.62 172.44,279.75 174.70,279.75 176.95,279.78 179.21,279.84 181.47,279.79 183.72,279.84 185.98,279.69 188.24,279.48 190.49,279.32 192.75,279.25 195.01,279.11 197.26,278.99 199.52,279.08 201.78,279.02 204.03,279.09 206.29,279.18 208.55,279.31 210.80,279.34 213.06,279.28 215.32,279.20 217.57,279.11 219.83,278.96 222.09,278.87 224.34,278.95 226.60,278.88 228.85,278.64 231.11,278.60 233.37,278.57 235.62,278.60 237.88,278.64 240.14,278.72 242.39,278.77 244.65,278.72 246.91,278.80 249.16,278.87 251.42,278.92 253.68,278.95 255.93,279.02 258.19,279.03 260.45,279.11 262.70,279.15 264.96,279.25 267.22,279.27 269.47,279.30 271.73,279.33 273.99,279.39 276.24,279.47 278.50,279.51 280.76,279.56 283.01,279.61 285.27,279.62 287.53,279.57 289.78,279.59 292.04,279.55 294.30,279.55 296.55,279.53 298.81,279.53 301.07,279.58 303.32,279.59 305.58,279.63 307.84,279.70 310.09,279.72 312.35,279.71 314.61,279.66 316.86,279.63 319.12,279.62 321.38,279.64 323.63,279.68 325.89,279.68 328.15,279.65 330.40,279.63 332.66,279.65 334.92,279.66 337.17,279.67 339.43,279.67 341.69,279.66 343.94,279.68 346.20,279.70 348.46,279.70 350.71,279.75 352.97,279.73 355.23,279.74 357.48,279.75 359.74,279.80 362.00,279.80 364.25,279.79 366.51,279.79 368.77,279.80 371.02,279.81 373.28,279.88 375.53,279.99 377.79,280.07 380.05,280.16 382.30,280.20 384.56,280.22 386.82,280.22 389.07,280.25 391.33,280.28 393.59,280.30 395.84,280.31 398.10,280.35 400.36,280.37 402.61,280.38 404.87,280.40 407.13,280.40 409.38,280.38 411.64,280.37 413.90,280.37 416.15,280.40 418.41,280.41 420.67,280.42 422.92,280.42 425.18,280.42 427.44,280.45 429.69,280.47 431.95,280.47 434.21,280.47 436.46,280.48 438.72,280.48 440.98,280.48 443.23,280.48 445.49,280.47 447.75,280.47 450.00,280.48 452.26,280.50 454.52,280.51 456.77,280.52 459.03,280.52 461.29,280.52 463.54,280.52 465.80,280.52 468.06,280.55 470.31,280.57 472.57,280.58 474.83,280.58 477.08,280.60 479.34,280.65 481.60,280.68 483.85,280.74 486.11,280.81 488.37,280.85 490.62,280.89 492.88,280.92 495.14,280.95 497.39,280.96 499.65,280.97 501.91,281.01 504.16,281.01 506.42,281.02 508.68,281.04 510.93,281.05 513.19,281.07 515.45,281.08 517.70,281.08 519.96,281.09 522.22,281.09 524.47,281.09 526.73,281.10 528.98,281.10 531.24,281.10 533.50,281.09 535.75,281.08 538.01,281.06 540.27,281.06 542.52,281.06 544.78,281.07 547.04,281.06 549.29,281.04 551.55,281.04 553.81,281.04 556.06,281.04 558.32,281.03 560.58,281.03 562.83,281.04 565.09,281.01 567.35,281.01 569.60,281.01 571.86,281.00 574.12,281.00 576.37,280.99 578.63,280.97 580.89,280.94 583.14,280.93 585.40,280.95 587.66,280.96 589.91,280.97 592.17,280.98 594.43,280.98 596.68,280.97 598.94,280.97 601.20,280.98 603.45,281.01 605.71,281.02 607.97,281.04 610.22,281.05 612.48,281.05 614.74,281.06 616.99,281.06 619.25,281.05 621.51,281.05 623.76,281.04 626.02,281.04 628.28,281.05 630.53,281.06 632.79,281.07 635.05,281.09 637.30,281.11 639.56,281.13 641.82,281.14 644.07,281.15 646.33,281.16 648.59,281.16 650.84,281.18 653.10,281.20 655.36,281.20 657.61,281.21 659.87,281.22 662.13,281.24 664.38,281.25 666.64,281.27 668.90,281.28 671.15,281.26 673.41,281.27 675.67,281.28 677.92,281.29 680.18,281.29 682.43,281.31 684.69,281.33 686.95,281.34 689.20,281.34 691.46,281.37 693.72,281.39 695.97,281.40 698.23,281.41 700.49,281.41 702.74,281.42 705.00,281.44 707.26,281.46 709.51,281.46 711.77,281.46 714.03,281.47 716.28,281.48 718.54,281.48 720.80,281.48 723.05,281.49 725.31,281.48 727.57,281.48 729.82,281.47 732.08,281.46 734.34,281.45 736.59,281.44 738.85,281.46 741.11,281.47 743.36,281.47 745.62,281.48 747.88,281.48 750.13,281.48 752.39,281.48 754.65,281.49 756.90,281.50 759.16,281.51 761.42,281.49 763.67,281.48 765.93,281.49 768.19,281.51 770.44,281.52 772.70,281.52 774.96,281.52 777.21,281.52 779.47,281.52 781.73,281.50 783.98,281.50 786.24,281.49 788.50,281.49 790.75,281.49 793.01,281.50 795.27,281.49 797.52,281.48 799.78,281.47 802.04,281.47 804.29,281.45 806.55,281.44 808.81,281.44 811.06,281.44 813.32,281.44 815.58,281.42 817.83,281.40 820.09,281.38 822.35,281.37 824.60,281.35 826.86,281.34 829.12,281.33 831.37,281.32 833.63,281.31 835.88,281.32 838.14,281.32 840.40,281.32 842.65,281.30 844.91,281.31 847.17,281.32 849.42,281.31 851.68,281.31 853.94,281.31 856.19,281.31 858.45,281.30 860.71,281.30 860.71,282.10 858.45,282.10 856.19,282.09 853.94,282.09 851.68,282.09 849.42,282.08 847.17,282.08 844.91,282.08 842.65,282.10 840.40,282.08 838.14,282.07 835.88,282.07 833.63,282.08 831.37,282.08 829.12,282.07 826.86,282.05 824.60,282.04 822.35,282.03 820.09,282.02 817.83,282.00 815.58,281.98 813.32,281.96 811.06,281.96 808.81,281.96 806.55,281.96 804.29,281.95 802.04,281.93 799.78,281.93 797.52,281.92 795.27,281.91 793.01,281.90 790.75,281.90 788.50,281.91 786.24,281.91 783.98,281.90 781.73,281.90 779.47,281.88 777.21,281.88 774.96,281.88 772.70,281.88 770.44,281.88 768.19,281.89 765.93,281.91 763.67,281.92 761.42,281.91 759.16,281.89 756.90,281.90 754.65,281.91 752.39,281.91 750.13,281.91 747.88,281.92 745.62,281.92 743.36,281.92 741.11,281.93 738.85,281.94 736.59,281.96 734.34,281.95 732.08,281.93 729.82,281.93 727.57,281.91 725.31,281.91 723.05,281.91 720.80,281.92 718.54,281.92 716.28,281.92 714.03,281.93 711.77,281.93 709.51,281.94 707.26,281.94 705.00,281.95 702.74,281.97 700.49,281.99 698.23,281.99 695.97,281.99 693.72,282.01 691.46,282.03 689.20,282.05 686.95,282.05 684.69,282.07 682.43,282.09 680.18,282.10 677.92,282.11 675.67,282.11 673.41,282.13 671.15,282.13 668.90,282.12 666.64,282.13 664.38,282.15 662.13,282.16 659.87,282.18 657.61,282.19 655.36,282.19 653.10,282.20 650.84,282.22 648.59,282.24 646.33,282.24 644.07,282.25 641.82,282.26 639.56,282.27 637.30,282.28 635.05,282.31 632.79,282.32 630.53,282.34 628.28,282.35 626.02,282.36 623.76,282.36 621.51,282.34 619.25,282.34 616.99,282.34 614.74,282.34 612.48,282.35 610.22,282.35 607.97,282.35 605.71,282.37 603.45,282.39 601.20,282.42 598.94,282.42 596.68,282.42 594.43,282.42 592.17,282.42 589.91,282.43 587.66,282.44 585.40,282.45 583.14,282.46 580.89,282.45 578.63,282.43 576.37,282.41 574.12,282.40 571.86,282.39 569.60,282.39 567.35,282.39 565.09,282.39 562.83,282.36 560.58,282.37 558.32,282.37 556.06,282.36 553.81,282.36 551.55,282.36 549.29,282.36 547.04,282.34 544.78,282.33 542.52,282.34 540.27,282.34 538.01,282.34 535.75,282.32 533.50,282.31 531.24,282.29 528.98,282.30 526.73,282.30 524.47,282.31 522.22,282.31 519.96,282.31 517.70,282.31 515.45,282.32 513.19,282.33 510.93,282.35 508.68,282.36 506.42,282.38 504.16,282.39 501.91,282.39 499.65,282.42 497.39,282.44 495.14,282.44 492.88,282.47 490.62,282.51 488.37,282.54 486.11,282.59 483.85,282.66 481.60,282.72 479.34,282.75 477.08,282.80 474.83,282.82 472.57,282.82 470.31,282.83 468.06,282.85 465.80,282.87 463.54,282.88 461.29,282.88 459.03,282.87 456.77,282.88 454.52,282.89 452.26,282.90 450.00,282.92 447.75,282.93 445.49,282.93 443.23,282.92 440.98,282.92 438.72,282.91 436.46,282.92 434.21,282.93 431.95,282.92 429.69,282.92 427.44,282.95 425.18,282.98 422.92,282.98 420.67,282.98 418.41,282.99 416.15,283.00 413.90,283.03 411.64,283.03 409.38,283.02 407.13,283.00 404.87,283.00 402.61,283.02 400.36,283.02 398.10,283.05 395.84,283.08 393.59,283.10 391.33,283.12 389.07,283.14 386.82,283.18 384.56,283.18 382.30,283.20 380.05,283.23 377.79,283.32 375.53,283.41 373.28,283.51 371.02,283.58 368.77,283.60 366.51,283.61 364.25,283.61 362.00,283.60 359.74,283.60 357.48,283.65 355.23,283.66 352.97,283.67 350.71,283.65 348.46,283.70 346.20,283.70 343.94,283.72 341.69,283.74 339.43,283.73 337.17,283.73 334.92,283.74 332.66,283.75 330.40,283.76 328.15,283.74 325.89,283.72 323.63,283.72 321.38,283.76 319.12,283.77 316.86,283.77 314.61,283.74 312.35,283.68 310.09,283.68 307.84,283.70 305.58,283.77 303.32,283.81 301.07,283.82 298.81,283.87 296.55,283.87 294.30,283.85 292.04,283.84 289.78,283.81 287.53,283.83 285.27,283.78 283.01,283.79 280.76,283.83 278.50,283.88 276.24,283.93 273.99,284.01 271.73,284.07 269.47,284.10 267.22,284.12 264.96,284.14 262.70,284.24 260.45,284.29 258.19,284.37 255.93,284.38 253.68,284.45 251.42,284.48 249.16,284.52 246.91,284.60 244.65,284.68 242.39,284.63 240.14,284.68 237.88,284.76 235.62,284.79 233.37,284.82 231.11,284.80 228.85,284.75 226.60,284.52 224.34,284.45 222.09,284.53 219.83,284.43 217.57,284.29 215.32,284.19 213.06,284.12 210.80,284.06 208.55,284.08 206.29,284.22 204.03,284.31 201.78,284.37 199.52,284.31 197.26,284.40 195.01,284.29 192.75,284.15 190.49,284.08 188.24,283.91 185.98,283.71 183.72,283.56 181.47,283.61 179.21,283.56 176.95,283.62 174.70,283.65 172.44,283.65 170.18,283.77 167.93,283.96 165.67,283.85 163.41,283.69 161.16,283.54 158.90,283.59 156.64,283.86 154.39,284.05 152.13,284.27 149.87,284.31 147.62,284.49 145.36,284.75 143.10,284.82 140.85,284.65 138.59,284.54 136.33,284.49 134.08,284.45 131.82,284.49 129.56,284.70 127.31,285.11 125.05,285.14 122.79,285.31 120.54,285.57 118.28,285.42 116.02,285.62 113.77,286.01 111.51,286.06 109.25,286.62 107.00,286.93 104.74,287.36 102.48,288.09 100.23,288.30 97.97,288.17 95.71,287.92 93.46,287.54 91.20,287.70 88.94,287.50 86.69,288.11 84.43,288.68 82.17,288.59 79.92,289.04 77.66,289.02 75.40,289.05 73.15,289.08 70.89,288.72 68.64,287.38 66.38,287.02 64.12,286.38 61.87,286.12 59.61,285.47 57.35,284.91 55.10,283.84 52.84,283.86 50.58,283.20 "
       style="stroke-width: 0.00; stroke: none; stroke-linecap: butt; fill: #ABABAB; fill-opacity: 0.50;"
       id="polygon17" />
    <polyline
       points="50.58,280.20 52.84,279.54 55.10,279.56 57.35,278.49 59.61,277.93 61.87,277.28 64.12,277.02 66.38,276.37 68.64,276.02 70.89,274.68 73.15,274.32 75.40,274.34 77.66,274.38 79.92,274.35 82.17,274.81 84.43,274.72 86.69,275.29 88.94,275.89 91.20,275.70 93.46,275.86 95.71,275.47 97.97,275.23 100.23,275.10 102.48,275.30 104.74,276.03 107.00,276.47 109.25,276.78 111.51,277.34 113.77,277.39 116.02,277.78 118.28,277.98 120.54,277.83 122.79,278.09 125.05,278.26 127.31,278.29 129.56,278.69 131.82,278.90 134.08,278.95 136.33,278.90 138.59,278.86 140.85,278.75 143.10,278.57 145.36,278.64 147.62,278.91 149.87,279.09 152.13,279.13 154.39,279.35 156.64,279.54 158.90,279.80 161.16,279.86 163.41,279.71 165.67,279.55 167.93,279.43 170.18,279.62 172.44,279.75 174.70,279.75 176.95,279.78 179.21,279.84 181.47,279.79 183.72,279.84 185.98,279.69 188.24,279.48 190.49,279.32 192.75,279.25 195.01,279.11 197.26,278.99 199.52,279.08 201.78,279.02 204.03,279.09 206.29,279.18 208.55,279.31 210.80,279.34 213.06,279.28 215.32,279.20 217.57,279.11 219.83,278.96 222.09,278.87 224.34,278.95 226.60,278.88 228.85,278.64 231.11,278.60 233.37,278.57 235.62,278.60 237.88,278.64 240.14,278.72 242.39,278.77 244.65,278.72 246.91,278.80 249.16,278.87 251.42,278.92 253.68,278.95 255.93,279.02 258.19,279.03 260.45,279.11 262.70,279.15 264.96,279.25 267.22,279.27 269.47,279.30 271.73,279.33 273.99,279.39 276.24,279.47 278.50,279.51 280.76,279.56 283.01,279.61 285.27,279.62 287.53,279.57 289.78,279.59 292.04,279.55 294.30,279.55 296.55,279.53 298.81,279.53 301.07,279.58 303.32,279.59 305.58,279.63 307.84,279.70 310.09,279.72 312.35,279.71 314.61,279.66 316.86,279.63 319.12,279.62 321.38,279.64 323.63,279.68 325.89,279.68 328.15,279.65 330.40,279.63 332.66,279.65 334.92,279.66 337.17,279.67 339.43,279.67 341.69,279.66 343.94,279.68 346.20,279.70 348.46,279.70 350.71,279.75 352.97,279.73 355.23,279.74 357.48,279.75 359.74,279.80 362.00,279.80 364.25,279.79 366.51,279.79 368.77,279.80 371.02,279.81 373.28,279.88 375.53,279.99 377.79,280.07 380.05,280.16 382.30,280.20 384.56,280.22 386.82,280.22 389.07,280.25 391.33,280.28 393.59,280.30 395.84,280.31 398.10,280.35 400.36,280.37 402.61,280.38 404.87,280.40 407.13,280.40 409.38,280.38 411.64,280.37 413.90,280.37 416.15,280.40 418.41,280.41 420.67,280.42 422.92,280.42 425.18,280.42 427.44,280.45 429.69,280.47 431.95,280.47 434.21,280.47 436.46,280.48 438.72,280.48 440.98,280.48 443.23,280.48 445.49,280.47 447.75,280.47 450.00,280.48 452.26,280.50 454.52,280.51 456.77,280.52 459.03,280.52 461.29,280.52 463.54,280.52 465.80,280.52 468.06,280.55 470.31,280.57 472.57,280.58 474.83,280.58 477.08,280.60 479.34,280.65 481.60,280.68 483.85,280.74 486.11,280.81 488.37,280.85 490.62,280.89 492.88,280.92 495.14,280.95 497.39,280.96 499.65,280.97 501.91,281.01 504.16,281.01 506.42,281.02 508.68,281.04 510.93,281.05 513.19,281.07 515.45,281.08 517.70,281.08 519.96,281.09 522.22,281.09 524.47,281.09 526.73,281.10 528.98,281.10 531.24,281.10 533.50,281.09 535.75,281.08 538.01,281.06 540.27,281.06 542.52,281.06 544.78,281.07 547.04,281.06 549.29,281.04 551.55,281.04 553.81,281.04 556.06,281.04 558.32,281.03 560.58,281.03 562.83,281.04 565.09,281.01 567.35,281.01 569.60,281.01 571.86,281.00 574.12,281.00 576.37,280.99 578.63,280.97 580.89,280.94 583.14,280.93 585.40,280.95 587.66,280.96 589.91,280.97 592.17,280.98 594.43,280.98 596.68,280.97 598.94,280.97 601.20,280.98 603.45,281.01 605.71,281.02 607.97,281.04 610.22,281.05 612.48,281.05 614.74,281.06 616.99,281.06 619.25,281.05 621.51,281.05 623.76,281.04 626.02,281.04 628.28,281.05 630.53,281.06 632.79,281.07 635.05,281.09 637.30,281.11 639.56,281.13 641.82,281.14 644.07,281.15 646.33,281.16 648.59,281.16 650.84,281.18 653.10,281.20 655.36,281.20 657.61,281.21 659.87,281.22 662.13,281.24 664.38,281.25 666.64,281.27 668.90,281.28 671.15,281.26 673.41,281.27 675.67,281.28 677.92,281.29 680.18,281.29 682.43,281.31 684.69,281.33 686.95,281.34 689.20,281.34 691.46,281.37 693.72,281.39 695.97,281.40 698.23,281.41 700.49,281.41 702.74,281.42 705.00,281.44 707.26,281.46 709.51,281.46 711.77,281.46 714.03,281.47 716.28,281.48 718.54,281.48 720.80,281.48 723.05,281.49 725.31,281.48 727.57,281.48 729.82,281.47 732.08,281.46 734.34,281.45 736.59,281.44 738.85,281.46 741.11,281.47 743.36,281.47 745.62,281.48 747.88,281.48 750.13,281.48 752.39,281.48 754.65,281.49 756.90,281.50 759.16,281.51 761.42,281.49 763.67,281.48 765.93,281.49 768.19,281.51 770.44,281.52 772.70,281.52 774.96,281.52 777.21,281.52 779.47,281.52 781.73,281.50 783.98,281.50 786.24,281.49 788.50,281.49 790.75,281.49 793.01,281.50 795.27,281.49 797.52,281.48 799.78,281.47 802.04,281.47 804.29,281.45 806.55,281.44 808.81,281.44 811.06,281.44 813.32,281.44 815.58,281.42 817.83,281.40 820.09,281.38 822.35,281.37 824.60,281.35 826.86,281.34 829.12,281.33 831.37,281.32 833.63,281.31 835.88,281.32 838.14,281.32 840.40,281.32 842.65,281.30 844.91,281.31 847.17,281.32 849.42,281.31 851.68,281.31 853.94,281.31 856.19,281.31 858.45,281.30 860.71,281.30 "
       style="stroke-width: 1.07; stroke: none; stroke-linecap: butt;"
       id="polyline18" />
    <polyline
       points="860.71,282.10 858.45,282.10 856.19,282.09 853.94,282.09 851.68,282.09 849.42,282.08 847.17,282.08 844.91,282.08 842.65,282.10 840.40,282.08 838.14,282.07 835.88,282.07 833.63,282.08 831.37,282.08 829.12,282.07 826.86,282.05 824.60,282.04 822.35,282.03 820.09,282.02 817.83,282.00 815.58,281.98 813.32,281.96 811.06,281.96 808.81,281.96 806.55,281.96 804.29,281.95 802.04,281.93 799.78,281.93 797.52,281.92 795.27,281.91 793.01,281.90 790.75,281.90 788.50,281.91 786.24,281.91 783.98,281.90 781.73,281.90 779.47,281.88 777.21,281.88 774.96,281.88 772.70,281.88 770.44,281.88 768.19,281.89 765.93,281.91 763.67,281.92 761.42,281.91 759.16,281.89 756.90,281.90 754.65,281.91 752.39,281.91 750.13,281.91 747.88,281.92 745.62,281.92 743.36,281.92 741.11,281.93 738.85,281.94 736.59,281.96 734.34,281.95 732.08,281.93 729.82,281.93 727.57,281.91 725.31,281.91 723.05,281.91 720.80,281.92 718.54,281.92 716.28,281.92 714.03,281.93 711.77,281.93 709.51,281.94 707.26,281.94 705.00,281.95 702.74,281.97 700.49,281.99 698.23,281.99 695.97,281.99 693.72,282.01 691.46,282.03 689.20,282.05 686.95,282.05 684.69,282.07 682.43,282.09 680.18,282.10 677.92,282.11 675.67,282.11 673.41,282.13 671.15,282.13 668.90,282.12 666.64,282.13 664.38,282.15 662.13,282.16 659.87,282.18 657.61,282.19 655.36,282.19 653.10,282.20 650.84,282.22 648.59,282.24 646.33,282.24 644.07,282.25 641.82,282.26 639.56,282.27 637.30,282.28 635.05,282.31 632.79,282.32 630.53,282.34 628.28,282.35 626.02,282.36 623.76,282.36 621.51,282.34 619.25,282.34 616.99,282.34 614.74,282.34 612.48,282.35 610.22,282.35 607.97,282.35 605.71,282.37 603.45,282.39 601.20,282.42 598.94,282.42 596.68,282.42 594.43,282.42 592.17,282.42 589.91,282.43 587.66,282.44 585.40,282.45 583.14,282.46 580.89,282.45 578.63,282.43 576.37,282.41 574.12,282.40 571.86,282.39 569.60,282.39 567.35,282.39 565.09,282.39 562.83,282.36 560.58,282.37 558.32,282.37 556.06,282.36 553.81,282.36 551.55,282.36 549.29,282.36 547.04,282.34 544.78,282.33 542.52,282.34 540.27,282.34 538.01,282.34 535.75,282.32 533.50,282.31 531.24,282.29 528.98,282.30 526.73,282.30 524.47,282.31 522.22,282.31 519.96,282.31 517.70,282.31 515.45,282.32 513.19,282.33 510.93,282.35 508.68,282.36 506.42,282.38 504.16,282.39 501.91,282.39 499.65,282.42 497.39,282.44 495.14,282.44 492.88,282.47 490.62,282.51 488.37,282.54 486.11,282.59 483.85,282.66 481.60,282.72 479.34,282.75 477.08,282.80 474.83,282.82 472.57,282.82 470.31,282.83 468.06,282.85 465.80,282.87 463.54,282.88 461.29,282.88 459.03,282.87 456.77,282.88 454.52,282.89 452.26,282.90 450.00,282.92 447.75,282.93 445.49,282.93 443.23,282.92 440.98,282.92 438.72,282.91 436.46,282.92 434.21,282.93 431.95,282.92 429.69,282.92 427.44,282.95 425.18,282.98 422.92,282.98 420.67,282.98 418.41,282.99 416.15,283.00 413.90,283.03 411.64,283.03 409.38,283.02 407.13,283.00 404.87,283.00 402.61,283.02 400.36,283.02 398.10,283.05 395.84,283.08 393.59,283.10 391.33,283.12 389.07,283.14 386.82,283.18 384.56,283.18 382.30,283.20 380.05,283.23 377.79,283.32 375.53,283.41 373.28,283.51 371.02,283.58 368.77,283.60 366.51,283.61 364.25,283.61 362.00,283.60 359.74,283.60 357.48,283.65 355.23,283.66 352.97,283.67 350.71,283.65 348.46,283.70 346.20,283.70 343.94,283.72 341.69,283.74 339.43,283.73 337.17,283.73 334.92,283.74 332.66,283.75 330.40,283.76 328.15,283.74 325.89,283.72 323.63,283.72 321.38,283.76 319.12,283.77 316.86,283.77 314.61,283.74 312.35,283.68 310.09,283.68 307.84,283.70 305.58,283.77 303.32,283.81 301.07,283.82 298.81,283.87 296.55,283.87 294.30,283.85 292.04,283.84 289.78,283.81 287.53,283.83 285.27,283.78 283.01,283.79 280.76,283.83 278.50,283.88 276.24,283.93 273.99,284.01 271.73,284.07 269.47,284.10 267.22,284.12 264.96,284.14 262.70,284.24 260.45,284.29 258.19,284.37 255.93,284.38 253.68,284.45 251.42,284.48 249.16,284.52 246.91,284.60 244.65,284.68 242.39,284.63 240.14,284.68 237.88,284.76 235.62,284.79 233.37,284.82 231.11,284.80 228.85,284.75 226.60,284.52 224.34,284.45 222.09,284.53 219.83,284.43 217.57,284.29 215.32,284.19 213.06,284.12 210.80,284.06 208.55,284.08 206.29,284.22 204.03,284.31 201.78,284.37 199.52,284.31 197.26,284.40 195.01,284.29 192.75,284.15 190.49,284.08 188.24,283.91 185.98,283.71 183.72,283.56 181.47,283.61 179.21,283.56 176.95,283.62 174.70,283.65 172.44,283.65 170.18,283.77 167.93,283.96 165.67,283.85 163.41,283.69 161.16,283.54 158.90,283.59 156.64,283.86 154.39,284.05 152.13,284.27 149.87,284.31 147.62,284.49 145.36,284.75 143.10,284.82 140.85,284.65 138.59,284.54 136.33,284.49 134.08,284.45 131.82,284.49 129.56,284.70 127.31,285.11 125.05,285.14 122.79,285.31 120.54,285.57 118.28,285.42 116.02,285.62 113.77,286.01 111.51,286.06 109.25,286.62 107.00,286.93 104.74,287.36 102.48,288.09 100.23,288.30 97.97,288.17 95.71,287.92 93.46,287.54 91.20,287.70 88.94,287.50 86.69,288.11 84.43,288.68 82.17,288.59 79.92,289.04 77.66,289.02 75.40,289.05 73.15,289.08 70.89,288.72 68.64,287.38 66.38,287.02 64.12,286.38 61.87,286.12 59.61,285.47 57.35,284.91 55.10,283.84 52.84,283.86 50.58,283.20 "
       style="stroke-width: 1.07; stroke: none; stroke-linecap: butt;"
       id="polyline19" />
  </g>
  <g
     clip-path="url(#cpMC4wMHw5NTkuOTh8MC4wMHw0NjguMDA=)"
     id="g44">
    <text
       x="44.11"
       y="380.19"
       text-anchor="end"
       style="font-size: 12.00px; font-family: &quot;Arial&quot;;"
       textLength="20.68px"
       lengthAdjust="spacingAndGlyphs"
       id="text19">-0.2</text>
    <text
       x="44.11"
       y="286.00"
       text-anchor="end"
       style="font-size: 12.00px; font-family: &quot;Arial&quot;;"
       textLength="16.68px"
       lengthAdjust="spacingAndGlyphs"
       id="text20">0.0</text>
    <text
       x="44.11"
       y="191.80"
       text-anchor="end"
       style="font-size: 12.00px; font-family: &quot;Arial&quot;;"
       textLength="16.68px"
       lengthAdjust="spacingAndGlyphs"
       id="text21">0.2</text>
    <text
       x="44.11"
       y="97.60"
       text-anchor="end"
       style="font-size: 12.00px; font-family: &quot;Arial&quot;;"
       textLength="16.68px"
       lengthAdjust="spacingAndGlyphs"
       id="text22">0.4</text>
    <polyline
       points="47.10,375.90 50.58,375.90 "
       style="stroke-width: 1.07; stroke: #D9D9D9; stroke-linecap: butt;"
       id="polyline22" />
    <polyline
       points="47.10,281.70 50.58,281.70 "
       style="stroke-width: 1.07; stroke: #D9D9D9; stroke-linecap: butt;"
       id="polyline23" />
    <polyline
       points="47.10,187.50 50.58,187.50 "
       style="stroke-width: 1.07; stroke: #D9D9D9; stroke-linecap: butt;"
       id="polyline24" />
    <polyline
       points="47.10,93.30 50.58,93.30 "
       style="stroke-width: 1.07; stroke: #D9D9D9; stroke-linecap: butt;"
       id="polyline25" />
    <polyline
       points="302.00,430.47 302.00,426.98 "
       style="stroke-width: 1.07; stroke: #D9D9D9; stroke-linecap: butt;"
       id="polyline26" />
    <polyline
       points="581.35,430.47 581.35,426.98 "
       style="stroke-width: 1.07; stroke: #D9D9D9; stroke-linecap: butt;"
       id="polyline27" />
    <polyline
       points="860.71,430.47 860.71,426.98 "
       style="stroke-width: 1.07; stroke: #D9D9D9; stroke-linecap: butt;"
       id="polyline28" />
    <text
       x="302.00"
       y="442.05"
       text-anchor="middle"
       style="font-size: 12.00px; font-family: &quot;Arial&quot;;"
       textLength="13.35px"
       lengthAdjust="spacingAndGlyphs"
       id="text28">10</text>
    <text
       x="581.35"
       y="442.05"
       text-anchor="middle"
       style="font-size: 12.00px; font-family: &quot;Arial&quot;;"
       textLength="13.35px"
       lengthAdjust="spacingAndGlyphs"
       id="text29">20</text>
    <text
       x="860.71"
       y="442.05"
       text-anchor="middle"
       style="font-size: 12.00px; font-family: &quot;Arial&quot;;"
       textLength="13.35px"
       lengthAdjust="spacingAndGlyphs"
       id="text30">30</text>
    <text
       x="455.64"
       y="458.08"
       text-anchor="middle"
       style="font-size: 14.00px; font-family: &quot;Arial&quot;;"
       textLength="151.68px"
       lengthAdjust="spacingAndGlyphs"
       id="text31">Mosquito lifespan (days)</text>
    <text
       transform="translate(17.00,216.98) rotate(-90)"
       text-anchor="middle"
       style="font-size: 14.00px; font-family: &quot;Arial&quot;;"
       textLength="98.79px"
       lengthAdjust="spacingAndGlyphs"
       id="text32">R0 PRCC value</text>
    <line
       x1="649.18591"
       y1="149.3293"
       x2="668.88336"
       y2="149.3293"
       style="fill:none;stroke:#2e91e5;stroke-width:3.41936;stroke-linecap:butt;stroke-linejoin:round;stroke-miterlimit:10"
       id="line38" />
    <line
       x1="649.18591"
       y1="164.89796"
       x2="668.88336"
       y2="164.89796"
       style="fill:none;stroke:#e15f99;stroke-width:3.41936;stroke-linecap:butt;stroke-linejoin:round;stroke-miterlimit:10"
       id="line39" />
    <line
       x1="649.18591"
       y1="180.38496"
       x2="668.88336"
       y2="180.38496"
       style="fill:none;stroke:#1ca71c;stroke-width:3.41936;stroke-linecap:butt;stroke-linejoin:round;stroke-miterlimit:10"
       id="line40" />
    <line
       x1="649.18591"
       y1="196.62497"
       x2="668.88336"
       y2="196.62497"
       style="fill:none;stroke:#fb0d0d;stroke-width:3.41936;stroke-linecap:butt;stroke-linejoin:round;stroke-miterlimit:10"
       id="line41" />
    <polyline
       points="53.41,398.04 61.57,400.71 69.72,402.90 77.88,404.59 86.03,405.99 94.19,407.22 102.34,408.20 110.49,409.09 118.65,409.89 126.80,410.73 134.96,411.35 143.11,411.99 151.27,412.51 159.42,413.02 167.58,413.41 175.73,413.79 183.88,414.20 192.04,414.51 200.19,414.80 208.35,415.06 216.50,415.38 224.66,415.62 232.81,415.92 240.97,416.15 249.12,416.38 257.28,416.58 265.43,416.74 273.58,416.90 281.74,417.06 289.89,417.23 298.05,417.34 306.20,417.45 314.36,417.59 322.51,417.68 330.67,417.80 338.82,417.95 346.97,418.08 355.13,418.15 363.28,418.25 371.44,418.35 379.59,418.45 387.75,418.55 395.90,418.63 404.06,418.74 412.21,418.79 420.37,418.88 428.52,418.92 436.67,418.99 444.83,419.10 452.98,419.14 461.14,419.21 469.29,419.26 477.45,419.34 485.60,419.40 493.76,419.47 501.91,419.54 510.06,419.58 518.22,419.63 526.37,419.64 534.53,419.69 542.68,419.73 550.84,419.81 558.99,419.87 567.15,419.91 575.30,419.95 583.45,419.98 591.61,420.02 599.76,420.05 607.92,420.08 616.07,420.12 624.23,420.15 632.38,420.19 640.54,420.22 648.69,420.26 656.85,420.31 665.00,420.32 673.15,420.34 681.31,420.37 689.46,420.41 697.62,420.45 705.77,420.49 713.93,420.50 722.08,420.54 730.24,420.57 738.39,420.59 746.54,420.61 754.70,420.62 762.85,420.64 771.01,420.68 779.16,420.69 787.32,420.70 795.47,420.73 803.63,420.73 811.78,420.76 819.94,420.78 828.09,420.83 836.24,420.84 844.40,420.87 852.55,420.90 860.71,420.91 "
       style="fill:none;stroke:#da16ff;stroke-width:2.13;stroke-linecap:butt;stroke-linejoin:round;stroke-miterlimit:10;stroke-dasharray:5.69, 5.69"
       id="Probability_label"
       transform="matrix(1.6053321,0,0,1.6055836,-638.01293,-463.41561)"
       clip-path="url(#clipPath51)" />
    <polyline
       points="53.41,398.04 61.57,400.71 69.72,402.90 77.88,404.59 86.03,405.99 94.19,407.22 102.34,408.20 110.49,409.09 118.65,409.89 126.80,410.73 134.96,411.35 143.11,411.99 151.27,412.51 159.42,413.02 167.58,413.41 175.73,413.79 183.88,414.20 192.04,414.51 200.19,414.80 208.35,415.06 216.50,415.38 224.66,415.62 232.81,415.92 240.97,416.15 249.12,416.38 257.28,416.58 265.43,416.74 273.58,416.90 281.74,417.06 289.89,417.23 298.05,417.34 306.20,417.45 314.36,417.59 322.51,417.68 330.67,417.80 338.82,417.95 346.97,418.08 355.13,418.15 363.28,418.25 371.44,418.35 379.59,418.45 387.75,418.55 395.90,418.63 404.06,418.74 412.21,418.79 420.37,418.88 428.52,418.92 436.67,418.99 444.83,419.10 452.98,419.14 461.14,419.21 469.29,419.26 477.45,419.34 485.60,419.40 493.76,419.47 501.91,419.54 510.06,419.58 518.22,419.63 526.37,419.64 534.53,419.69 542.68,419.73 550.84,419.81 558.99,419.87 567.15,419.91 575.30,419.95 583.45,419.98 591.61,420.02 599.76,420.05 607.92,420.08 616.07,420.12 624.23,420.15 632.38,420.19 640.54,420.22 648.69,420.26 656.85,420.31 665.00,420.32 673.15,420.34 681.31,420.37 689.46,420.41 697.62,420.45 705.77,420.49 713.93,420.50 722.08,420.54 730.24,420.57 738.39,420.59 746.54,420.61 754.70,420.62 762.85,420.64 771.01,420.68 779.16,420.69 787.32,420.70 795.47,420.73 803.63,420.73 811.78,420.76 819.94,420.78 828.09,420.83 836.24,420.84 844.40,420.87 852.55,420.90 860.71,420.91 "
       style="fill:none;stroke:#fb0d0d;stroke-width:2.13;stroke-linecap:butt;stroke-linejoin:round;stroke-miterlimit:10;stroke-dasharray:5.69, 5.69;stroke-opacity:1"
       id="Probability_label-1"
       transform="matrix(1.6053321,0,0,1.6055836,-638.01245,-478.85561)"
       clip-path="url(#clipPath51-3)" />
    <polyline
       points="53.41,398.04 61.57,400.71 69.72,402.90 77.88,404.59 86.03,405.99 94.19,407.22 102.34,408.20 110.49,409.09 118.65,409.89 126.80,410.73 134.96,411.35 143.11,411.99 151.27,412.51 159.42,413.02 167.58,413.41 175.73,413.79 183.88,414.20 192.04,414.51 200.19,414.80 208.35,415.06 216.50,415.38 224.66,415.62 232.81,415.92 240.97,416.15 249.12,416.38 257.28,416.58 265.43,416.74 273.58,416.90 281.74,417.06 289.89,417.23 298.05,417.34 306.20,417.45 314.36,417.59 322.51,417.68 330.67,417.80 338.82,417.95 346.97,418.08 355.13,418.15 363.28,418.25 371.44,418.35 379.59,418.45 387.75,418.55 395.90,418.63 404.06,418.74 412.21,418.79 420.37,418.88 428.52,418.92 436.67,418.99 444.83,419.10 452.98,419.14 461.14,419.21 469.29,419.26 477.45,419.34 485.60,419.40 493.76,419.47 501.91,419.54 510.06,419.58 518.22,419.63 526.37,419.64 534.53,419.69 542.68,419.73 550.84,419.81 558.99,419.87 567.15,419.91 575.30,419.95 583.45,419.98 591.61,420.02 599.76,420.05 607.92,420.08 616.07,420.12 624.23,420.15 632.38,420.19 640.54,420.22 648.69,420.26 656.85,420.31 665.00,420.32 673.15,420.34 681.31,420.37 689.46,420.41 697.62,420.45 705.77,420.49 713.93,420.50 722.08,420.54 730.24,420.57 738.39,420.59 746.54,420.61 754.70,420.62 762.85,420.64 771.01,420.68 779.16,420.69 787.32,420.70 795.47,420.73 803.63,420.73 811.78,420.76 819.94,420.78 828.09,420.83 836.24,420.84 844.40,420.87 852.55,420.90 860.71,420.91 "
       style="fill:none;stroke:#1ca71c;stroke-width:2.13;stroke-linecap:butt;stroke-linejoin:round;stroke-miterlimit:10;stroke-dasharray:5.69, 5.69;stroke-opacity:1"
       id="Probability_label-1-2"
       transform="matrix(1.6053321,0,0,1.6055836,-638.01245,-495.09561)"
       clip-path="url(#clipPath51-3-1)" />
    <text
       x="896.96997"
       y="294.22"
       style="font-size:12px;font-family:Arial;white-space:pre"
       textLength="56.029999"
       lengthAdjust="spacingAndGlyphs"
       id="text49"
       transform="translate(-222.93969,-157.7881)"><tspan
         style="font-weight:bold"
         id="tspan53">Probability</tspan></text>
    <line
       x1="649.18591"
       y1="212.06496"
       x2="668.88336"
       y2="212.06496"
       style="fill:none;stroke:#da16ff;stroke-width:3.41936;stroke-linecap:butt;stroke-linejoin:round;stroke-miterlimit:10"
       id="line42" />
    <text
       x="896.96997"
       y="168.27"
       style="font-style:normal;font-variant:normal;font-weight:bold;font-stretch:normal;font-size:12px;font-family:Arial;-inkscape-font-specification:'Arial Bold';white-space:pre"
       textLength="48.040001"
       lengthAdjust="spacingAndGlyphs"
       id="text42"
       transform="translate(-302.00406,-15.295352)"><tspan
         style="font-style:normal;font-variant:normal;font-weight:normal;font-stretch:normal;font-family:Arial;-inkscape-font-specification:'Arial Bold'"
         id="tspan54">Questing</tspan></text>
    <text
       x="896.96997"
       y="183.62"
       style="font-style:normal;font-variant:normal;font-weight:bold;font-stretch:normal;font-size:12px;font-family:Arial;-inkscape-font-specification:'Arial Bold';white-space:pre"
       textLength="43.369999"
       lengthAdjust="spacingAndGlyphs"
       id="text43"
       transform="translate(-297.40429,-15.295352)"><tspan
         style="font-style:normal;font-variant:normal;font-weight:normal;font-stretch:normal;font-family:Arial;-inkscape-font-specification:'Arial Bold'"
         id="tspan55">Seeking</tspan></text>
    <text
       x="896.96997"
       y="198.96001"
       style="font-style:normal;font-variant:normal;font-weight:bold;font-stretch:normal;font-size:12px;font-family:Arial;-inkscape-font-specification:'Arial Bold';white-space:pre"
       textLength="42.709999"
       lengthAdjust="spacingAndGlyphs"
       id="text44"
       transform="translate(-296.8041,-15.295352)"><tspan
         style="font-style:normal;font-variant:normal;font-weight:normal;font-stretch:normal;font-family:Arial;-inkscape-font-specification:'Arial Bold'"
         id="tspan56">Landing</tspan></text>
    <text
       x="896.96997"
       y="214.3"
       style="font-style:normal;font-variant:normal;font-weight:bold;font-stretch:normal;font-size:12px;font-family:Arial;-inkscape-font-specification:'Arial Bold';white-space:pre"
       textLength="41.360001"
       lengthAdjust="spacingAndGlyphs"
       id="text45"
       transform="translate(-295.50392,-15.295352)"><tspan
         style="font-style:normal;font-variant:normal;font-weight:normal;font-stretch:normal;font-family:Arial;-inkscape-font-specification:'Arial Bold'"
         id="tspan57">Probing</tspan></text>
    <text
       x="896.96997"
       y="229.64"
       style="font-style:normal;font-variant:normal;font-weight:bold;font-stretch:normal;font-size:12px;font-family:Arial;-inkscape-font-specification:'Arial Bold';white-space:pre"
       textLength="48.709999"
       lengthAdjust="spacingAndGlyphs"
       id="text46"
       transform="translate(-302.80447,-15.294863)"><tspan
         style="font-style:normal;font-variant:normal;font-weight:normal;font-stretch:normal;font-family:Arial;-inkscape-font-specification:'Arial Bold'"
         id="tspan58">Ingesting</tspan></text>
    <text
       x="896.96997"
       y="278.87"
       style="font-size:12px;font-family:Arial;white-space:pre"
       textLength="25.35"
       lengthAdjust="spacingAndGlyphs"
       id="text48"
       transform="translate(-253.6624,-142.43849)"><tspan
         style="font-weight:bold"
         id="tspan52">Rate</tspan></text>
    <polyline
       points="53.41,398.04 61.57,400.71 69.72,402.90 77.88,404.59 86.03,405.99 94.19,407.22 102.34,408.20 110.49,409.09 118.65,409.89 126.80,410.73 134.96,411.35 143.11,411.99 151.27,412.51 159.42,413.02 167.58,413.41 175.73,413.79 183.88,414.20 192.04,414.51 200.19,414.80 208.35,415.06 216.50,415.38 224.66,415.62 232.81,415.92 240.97,416.15 249.12,416.38 257.28,416.58 265.43,416.74 273.58,416.90 281.74,417.06 289.89,417.23 298.05,417.34 306.20,417.45 314.36,417.59 322.51,417.68 330.67,417.80 338.82,417.95 346.97,418.08 355.13,418.15 363.28,418.25 371.44,418.35 379.59,418.45 387.75,418.55 395.90,418.63 404.06,418.74 412.21,418.79 420.37,418.88 428.52,418.92 436.67,418.99 444.83,419.10 452.98,419.14 461.14,419.21 469.29,419.26 477.45,419.34 485.60,419.40 493.76,419.47 501.91,419.54 510.06,419.58 518.22,419.63 526.37,419.64 534.53,419.69 542.68,419.73 550.84,419.81 558.99,419.87 567.15,419.91 575.30,419.95 583.45,419.98 591.61,420.02 599.76,420.05 607.92,420.08 616.07,420.12 624.23,420.15 632.38,420.19 640.54,420.22 648.69,420.26 656.85,420.31 665.00,420.32 673.15,420.34 681.31,420.37 689.46,420.41 697.62,420.45 705.77,420.49 713.93,420.50 722.08,420.54 730.24,420.57 738.39,420.59 746.54,420.61 754.70,420.62 762.85,420.64 771.01,420.68 779.16,420.69 787.32,420.70 795.47,420.73 803.63,420.73 811.78,420.76 819.94,420.78 828.09,420.83 836.24,420.84 844.40,420.87 852.55,420.90 860.71,420.91 "
       style="fill:none;stroke:#e15f99;stroke-width:2.13;stroke-linecap:butt;stroke-linejoin:round;stroke-miterlimit:10;stroke-dasharray:5.69, 5.69;stroke-opacity:1"
       id="Probability_label-1-2-3"
       transform="matrix(1.6053321,0,0,1.6055836,-638.01245,-510.58261)"
       clip-path="url(#clipPath51-3-1-9)" />
    <polyline
       points="53.41,398.04 61.57,400.71 69.72,402.90 77.88,404.59 86.03,405.99 94.19,407.22 102.34,408.20 110.49,409.09 118.65,409.89 126.80,410.73 134.96,411.35 143.11,411.99 151.27,412.51 159.42,413.02 167.58,413.41 175.73,413.79 183.88,414.20 192.04,414.51 200.19,414.80 208.35,415.06 216.50,415.38 224.66,415.62 232.81,415.92 240.97,416.15 249.12,416.38 257.28,416.58 265.43,416.74 273.58,416.90 281.74,417.06 289.89,417.23 298.05,417.34 306.20,417.45 314.36,417.59 322.51,417.68 330.67,417.80 338.82,417.95 346.97,418.08 355.13,418.15 363.28,418.25 371.44,418.35 379.59,418.45 387.75,418.55 395.90,418.63 404.06,418.74 412.21,418.79 420.37,418.88 428.52,418.92 436.67,418.99 444.83,419.10 452.98,419.14 461.14,419.21 469.29,419.26 477.45,419.34 485.60,419.40 493.76,419.47 501.91,419.54 510.06,419.58 518.22,419.63 526.37,419.64 534.53,419.69 542.68,419.73 550.84,419.81 558.99,419.87 567.15,419.91 575.30,419.95 583.45,419.98 591.61,420.02 599.76,420.05 607.92,420.08 616.07,420.12 624.23,420.15 632.38,420.19 640.54,420.22 648.69,420.26 656.85,420.31 665.00,420.32 673.15,420.34 681.31,420.37 689.46,420.41 697.62,420.45 705.77,420.49 713.93,420.50 722.08,420.54 730.24,420.57 738.39,420.59 746.54,420.61 754.70,420.62 762.85,420.64 771.01,420.68 779.16,420.69 787.32,420.70 795.47,420.73 803.63,420.73 811.78,420.76 819.94,420.78 828.09,420.83 836.24,420.84 844.40,420.87 852.55,420.90 860.71,420.91 "
       style="fill:none;stroke:#2e91e5;stroke-width:2.13;stroke-linecap:butt;stroke-linejoin:round;stroke-miterlimit:10;stroke-dasharray:5.69, 5.69;stroke-opacity:1"
       id="Probability_label-1-2-9"
       transform="matrix(1.6053321,0,0,1.6055836,-638.01293,-526.15161)"
       clip-path="url(#clipPath51-3-1-3)" />
  </g>
</svg>
