<?xml version="1.0" encoding="UTF-8" standalone="no"?>
<svg
   class="svglite"
   width="959.98pt"
   height="468.00pt"
   viewBox="0 0 959.98 468.00"
   version="1.1"
   id="svg49"
   sodipodi:docname="R0_PRCC_vary_EIP.svg"
   inkscape:version="1.3.2 (091e20e, 2023-11-25, custom)"
   inkscape:export-filename="R0_PRCC_vary_EIP.png"
   inkscape:export-xdpi="600"
   inkscape:export-ydpi="600"
   xmlns:inkscape="http://www.inkscape.org/namespaces/inkscape"
   xmlns:sodipodi="http://sodipodi.sourceforge.net/DTD/sodipodi-0.dtd"
   xmlns="http://www.w3.org/2000/svg"
   xmlns:svg="http://www.w3.org/2000/svg">
  <sodipodi:namedview
     id="namedview49"
     pagecolor="#ffffff"
     bordercolor="#000000"
     borderopacity="0.25"
     inkscape:showpageshadow="2"
     inkscape:pageopacity="0.0"
     inkscape:pagecheckerboard="0"
     inkscape:deskcolor="#d1d1d1"
     inkscape:document-units="pt"
     inkscape:zoom="0.53807529"
     inkscape:cx="706.22087"
     inkscape:cy="396.78462"
     inkscape:window-width="1440"
     inkscape:window-height="821"
     inkscape:window-x="-7"
     inkscape:window-y="-7"
     inkscape:window-maximized="1"
     inkscape:current-layer="g49"
     showgrid="false">
    <inkscape:grid
       id="grid58"
       units="pt"
       originx="0"
       originy="0"
       spacingx="1.0000001"
       spacingy="1"
       empcolor="#0099e5"
       empopacity="0.30196078"
       color="#0099e5"
       opacity="0.14901961"
       empspacing="5"
       dotted="false"
       gridanglex="30"
       gridanglez="30"
       visible="false" />
  </sodipodi:namedview>
  <defs
     id="defs1">
    <style
       type="text/css"
       id="style1"><![CDATA[
    .svglite line, .svglite polyline, .svglite polygon, .svglite path, .svglite rect, .svglite circle {
      fill: none;
      stroke: #000000;
      stroke-linecap: round;
      stroke-linejoin: round;
      stroke-miterlimit: 10.00;
    }
    .svglite text {
      white-space: pre;
    }
  ]]></style>
    <clipPath
       clipPathUnits="userSpaceOnUse"
       id="clipPath49">
      <rect
         style="fill:#000000;fill-rule:evenodd;stroke-width:0"
         id="rect50"
         width="26.857756"
         height="20.451319"
         x="821.32111"
         y="408.92203" />
    </clipPath>
    <clipPath
       clipPathUnits="userSpaceOnUse"
       id="clipPath51">
      <rect
         style="fill:#000000;fill-rule:evenodd;stroke-width:0"
         id="rect52"
         width="17.371302"
         height="2.4332142"
         x="825.66388"
         y="419.64236" />
    </clipPath>
    <clipPath
       clipPathUnits="userSpaceOnUse"
       id="clipPath51-3">
      <rect
         style="fill:#000000;fill-rule:evenodd;stroke-width:0"
         id="rect52-6"
         width="17.371302"
         height="2.4332142"
         x="825.66388"
         y="419.64236" />
    </clipPath>
    <clipPath
       clipPathUnits="userSpaceOnUse"
       id="clipPath51-3-1">
      <rect
         style="fill:#000000;fill-rule:evenodd;stroke-width:0"
         id="rect52-6-2"
         width="17.371302"
         height="2.4332142"
         x="825.66388"
         y="419.64236" />
    </clipPath>
    <clipPath
       clipPathUnits="userSpaceOnUse"
       id="clipPath51-3-1-9">
      <rect
         style="fill:#000000;fill-rule:evenodd;stroke-width:0"
         id="rect52-6-2-8"
         width="17.371302"
         height="2.4332142"
         x="825.66388"
         y="419.64236" />
    </clipPath>
    <clipPath
       clipPathUnits="userSpaceOnUse"
       id="clipPath51-3-1-3">
      <rect
         style="fill:#000000;fill-rule:evenodd;stroke-width:0"
         id="rect52-6-2-3"
         width="17.371302"
         height="2.4332142"
         x="825.66388"
         y="419.64236" />
    </clipPath>
  </defs>
  <rect
     width="100%"
     height="100%"
     style="stroke: none; fill: none;"
     id="rect1" />
  <defs
     id="defs2">
    <clipPath
       id="cpMC4wMHw5NTkuOTh8MC4wMHw0NjguMDA=">
      <rect
         x="0.00"
         y="0.00"
         width="959.98"
         height="468.00"
         id="rect2" />
    </clipPath>
  </defs>
  <g
     clip-path="url(#cpMC4wMHw5NTkuOTh8MC4wMHw0NjguMDA=)"
     id="g2"
     transform="translate(38.438627,-92.836375)" />
  <defs
     id="defs3">
    <clipPath
       id="cpNTMuNDF8ODYwLjcxfDYuOTd8NDI2Ljk4">
      <rect
         x="53.41"
         y="6.97"
         width="807.29"
         height="420.01"
         id="rect3" />
    </clipPath>
  </defs>
  <g
     clip-path="url(#cpNTMuNDF8ODYwLjcxfDYuOTd8NDI2Ljk4)"
     id="g20">
    <polyline
       points="53.41,374.83 860.71,374.83 "
       style="stroke-width: 1.07; stroke: #D9D9D9; stroke-linecap: butt;"
       id="polyline3" />
    <polyline
       points="53.41,259.76 860.71,259.76 "
       style="stroke-width: 1.07; stroke: #D9D9D9; stroke-linecap: butt;"
       id="polyline4" />
    <polyline
       points="53.41,144.70 860.71,144.70 "
       style="stroke-width: 1.07; stroke: #D9D9D9; stroke-linecap: butt;"
       id="polyline5" />
    <polyline
       points="53.41,29.64 860.71,29.64 "
       style="stroke-width: 1.07; stroke: #D9D9D9; stroke-linecap: butt;"
       id="polyline6" />
    <polyline
       points="214.87,426.98 214.87,6.97 "
       style="stroke-width: 1.07; stroke: #D9D9D9; stroke-linecap: butt;"
       id="polyline7" />
    <polyline
       points="416.70,426.98 416.70,6.97 "
       style="stroke-width: 1.07; stroke: #D9D9D9; stroke-linecap: butt;"
       id="polyline8" />
    <polyline
       points="618.52,426.98 618.52,6.97 "
       style="stroke-width: 1.07; stroke: #D9D9D9; stroke-linecap: butt;"
       id="polyline9" />
    <polyline
       points="820.34,426.98 820.34,6.97 "
       style="stroke-width: 1.07; stroke: #D9D9D9; stroke-linecap: butt;"
       id="polyline10" />
    <polyline
       points="53.41,11.12 61.57,12.82 69.72,14.47 77.88,15.66 86.03,16.55 94.19,17.45 102.34,18.06 110.49,18.72 118.65,19.22 126.80,19.64 134.96,20.09 143.11,20.55 151.27,20.97 159.42,21.23 167.58,21.62 175.73,21.88 183.88,22.18 192.04,22.35 200.19,22.63 208.35,22.85 216.50,23.04 224.66,23.22 232.81,23.47 240.97,23.64 249.12,23.80 257.28,23.89 265.43,23.99 273.58,24.10 281.74,24.24 289.89,24.43 298.05,24.51 306.20,24.63 314.36,24.73 322.51,24.80 330.67,24.90 338.82,25.01 346.97,25.12 355.13,25.19 363.28,25.22 371.44,25.25 379.59,25.33 387.75,25.35 395.90,25.41 404.06,25.50 412.21,25.53 420.37,25.59 428.52,25.61 436.67,25.66 444.83,25.73 452.98,25.77 461.14,25.82 469.29,25.89 477.45,25.94 485.60,25.98 493.76,26.03 501.91,26.09 510.06,26.13 518.22,26.20 526.37,26.23 534.53,26.29 542.68,26.30 550.84,26.36 558.99,26.38 567.15,26.40 575.30,26.41 583.45,26.45 591.61,26.46 599.76,26.47 607.92,26.50 616.07,26.53 624.23,26.55 632.38,26.55 640.54,26.57 648.69,26.61 656.85,26.64 665.00,26.68 673.15,26.69 681.31,26.73 689.46,26.72 697.62,26.75 705.77,26.77 713.93,26.80 722.08,26.81 730.24,26.85 738.39,26.85 746.54,26.86 754.70,26.87 762.85,26.87 771.01,26.89 779.16,26.90 787.32,26.91 795.47,26.91 803.63,26.92 811.78,26.93 819.94,26.94 828.09,26.94 836.24,26.94 844.40,26.96 852.55,26.99 860.71,27.00 "
       style="stroke-width: 2.13; stroke: #2E91E5; stroke-linecap: butt;"
       id="polyline11" />
    <polyline
       points="53.41,426.98 61.57,425.23 69.72,423.79 77.88,422.70 86.03,421.51 94.19,420.63 102.34,420.00 110.49,419.39 118.65,418.87 126.80,418.32 134.96,417.94 143.11,417.49 151.27,417.08 159.42,416.62 167.58,416.36 175.73,416.11 183.88,415.81 192.04,415.54 200.19,415.35 208.35,415.21 216.50,415.01 224.66,414.78 232.81,414.65 240.97,414.53 249.12,414.46 257.28,414.33 265.43,414.19 273.58,414.04 281.74,413.90 289.89,413.74 298.05,413.62 306.20,413.50 314.36,413.45 322.51,413.34 330.67,413.24 338.82,413.17 346.97,413.11 355.13,413.01 363.28,412.95 371.44,412.89 379.59,412.80 387.75,412.76 395.90,412.65 404.06,412.57 412.21,412.49 420.37,412.44 428.52,412.41 436.67,412.39 444.83,412.33 452.98,412.29 461.14,412.27 469.29,412.25 477.45,412.22 485.60,412.15 493.76,412.09 501.91,412.03 510.06,412.02 518.22,412.00 526.37,411.98 534.53,411.96 542.68,411.93 550.84,411.91 558.99,411.87 567.15,411.87 575.30,411.83 583.45,411.78 591.61,411.75 599.76,411.72 607.92,411.67 616.07,411.63 624.23,411.60 632.38,411.55 640.54,411.52 648.69,411.49 656.85,411.46 665.00,411.44 673.15,411.40 681.31,411.38 689.46,411.36 697.62,411.34 705.77,411.33 713.93,411.34 722.08,411.32 730.24,411.31 738.39,411.29 746.54,411.28 754.70,411.26 762.85,411.25 771.01,411.23 779.16,411.20 787.32,411.18 795.47,411.19 803.63,411.19 811.78,411.19 819.94,411.15 828.09,411.12 836.24,411.10 844.40,411.09 852.55,411.09 860.71,411.07 "
       style="stroke-width: 2.13; stroke: #E15F99; stroke-dasharray: 5.69,5.69; stroke-linecap: butt;"
       id="polyline12" />
    <polyline
       points="53.41,224.93 61.57,225.00 69.72,225.06 77.88,225.23 86.03,225.38 94.19,225.47 102.34,225.46 110.49,225.58 118.65,225.57 126.80,225.55 134.96,225.56 143.11,225.58 151.27,225.64 159.42,225.68 167.58,225.66 175.73,225.67 183.88,225.64 192.04,225.64 200.19,225.71 208.35,225.73 216.50,225.73 224.66,225.71 232.81,225.74 240.97,225.77 249.12,225.79 257.28,225.78 265.43,225.79 273.58,225.82 281.74,225.80 289.89,225.84 298.05,225.83 306.20,225.84 314.36,225.88 322.51,225.86 330.67,225.83 338.82,225.81 346.97,225.75 355.13,225.77 363.28,225.76 371.44,225.77 379.59,225.75 387.75,225.74 395.90,225.75 404.06,225.74 412.21,225.71 420.37,225.72 428.52,225.71 436.67,225.68 444.83,225.67 452.98,225.68 461.14,225.68 469.29,225.70 477.45,225.71 485.60,225.70 493.76,225.68 501.91,225.67 510.06,225.69 518.22,225.69 526.37,225.72 534.53,225.72 542.68,225.73 550.84,225.74 558.99,225.73 567.15,225.72 575.30,225.71 583.45,225.71 591.61,225.69 599.76,225.69 607.92,225.69 616.07,225.68 624.23,225.69 632.38,225.69 640.54,225.68 648.69,225.69 656.85,225.67 665.00,225.67 673.15,225.65 681.31,225.64 689.46,225.64 697.62,225.63 705.77,225.65 713.93,225.66 722.08,225.67 730.24,225.68 738.39,225.71 746.54,225.70 754.70,225.70 762.85,225.69 771.01,225.70 779.16,225.71 787.32,225.72 795.47,225.72 803.63,225.72 811.78,225.72 819.94,225.73 828.09,225.74 836.24,225.74 844.40,225.76 852.55,225.75 860.71,225.76 "
       style="stroke-width: 2.13; stroke: #1CA71C; stroke-linecap: butt;"
       id="polyline13" />
    <polyline
       points="53.41,6.97 61.57,8.32 69.72,9.35 77.88,10.29 86.03,10.99 94.19,11.58 102.34,12.05 110.49,12.57 118.65,13.07 126.80,13.49 134.96,13.91 143.11,14.18 151.27,14.46 159.42,14.68 167.58,14.98 175.73,15.21 183.88,15.39 192.04,15.55 200.19,15.73 208.35,15.92 216.50,16.11 224.66,16.24 232.81,16.36 240.97,16.58 249.12,16.76 257.28,16.88 265.43,16.99 273.58,17.07 281.74,17.16 289.89,17.23 298.05,17.33 306.20,17.35 314.36,17.47 322.51,17.52 330.67,17.62 338.82,17.69 346.97,17.74 355.13,17.79 363.28,17.87 371.44,17.91 379.59,17.98 387.75,18.03 395.90,18.10 404.06,18.17 412.21,18.21 420.37,18.28 428.52,18.31 436.67,18.35 444.83,18.40 452.98,18.41 461.14,18.44 469.29,18.49 477.45,18.51 485.60,18.56 493.76,18.60 501.91,18.64 510.06,18.67 518.22,18.71 526.37,18.73 534.53,18.78 542.68,18.79 550.84,18.81 558.99,18.84 567.15,18.88 575.30,18.91 583.45,18.93 591.61,18.98 599.76,18.99 607.92,19.00 616.07,19.02 624.23,19.04 632.38,19.07 640.54,19.09 648.69,19.10 656.85,19.12 665.00,19.14 673.15,19.16 681.31,19.20 689.46,19.24 697.62,19.26 705.77,19.29 713.93,19.29 722.08,19.32 730.24,19.34 738.39,19.36 746.54,19.39 754.70,19.41 762.85,19.42 771.01,19.44 779.16,19.44 787.32,19.45 795.47,19.48 803.63,19.49 811.78,19.51 819.94,19.53 828.09,19.56 836.24,19.59 844.40,19.61 852.55,19.62 860.71,19.64 "
       style="stroke-width: 2.13; stroke: #1CA71C; stroke-dasharray: 5.69,5.69; stroke-linecap: butt;"
       id="polyline14" />
    <polyline
       points="53.41,249.27 61.57,249.35 69.72,249.44 77.88,249.52 86.03,249.45 94.19,249.49 102.34,249.32 110.49,249.40 118.65,249.44 126.80,249.36 134.96,249.37 143.11,249.51 151.27,249.51 159.42,249.52 167.58,249.54 175.73,249.52 183.88,249.50 192.04,249.48 200.19,249.48 208.35,249.49 216.50,249.46 224.66,249.39 232.81,249.41 240.97,249.37 249.12,249.38 257.28,249.33 265.43,249.36 273.58,249.32 281.74,249.25 289.89,249.24 298.05,249.28 306.20,249.29 314.36,249.29 322.51,249.33 330.67,249.38 338.82,249.39 346.97,249.38 355.13,249.39 363.28,249.38 371.44,249.36 379.59,249.38 387.75,249.43 395.90,249.42 404.06,249.40 412.21,249.37 420.37,249.39 428.52,249.38 436.67,249.41 444.83,249.42 452.98,249.42 461.14,249.42 469.29,249.43 477.45,249.39 485.60,249.41 493.76,249.43 501.91,249.41 510.06,249.38 518.22,249.40 526.37,249.38 534.53,249.35 542.68,249.33 550.84,249.31 558.99,249.31 567.15,249.32 575.30,249.30 583.45,249.31 591.61,249.33 599.76,249.30 607.92,249.31 616.07,249.29 624.23,249.30 632.38,249.30 640.54,249.30 648.69,249.33 656.85,249.31 665.00,249.32 673.15,249.32 681.31,249.31 689.46,249.34 697.62,249.36 705.77,249.37 713.93,249.36 722.08,249.36 730.24,249.34 738.39,249.35 746.54,249.37 754.70,249.38 762.85,249.39 771.01,249.39 779.16,249.39 787.32,249.38 795.47,249.36 803.63,249.36 811.78,249.35 819.94,249.35 828.09,249.35 836.24,249.36 844.40,249.35 852.55,249.36 860.71,249.35 "
       style="stroke-width: 2.13; stroke: #FB0D0D; stroke-linecap: butt;"
       id="polyline15" />
    <polyline
       points="53.41,194.87 61.57,197.77 69.72,200.10 77.88,201.97 86.03,203.53 94.19,204.61 102.34,205.86 110.49,206.71 118.65,207.64 126.80,208.41 134.96,209.13 143.11,209.80 151.27,210.41 159.42,210.91 167.58,211.38 175.73,211.81 183.88,212.27 192.04,212.61 200.19,213.00 208.35,213.32 216.50,213.62 224.66,213.91 232.81,214.16 240.97,214.40 249.12,214.60 257.28,214.85 265.43,215.06 273.58,215.27 281.74,215.44 289.89,215.60 298.05,215.76 306.20,215.94 314.36,216.07 322.51,216.25 330.67,216.37 338.82,216.49 346.97,216.68 355.13,216.80 363.28,216.93 371.44,217.01 379.59,217.13 387.75,217.21 395.90,217.30 404.06,217.35 412.21,217.46 420.37,217.53 428.52,217.60 436.67,217.68 444.83,217.77 452.98,217.83 461.14,217.91 469.29,217.98 477.45,218.05 485.60,218.13 493.76,218.19 501.91,218.24 510.06,218.27 518.22,218.33 526.37,218.36 534.53,218.48 542.68,218.53 550.84,218.59 558.99,218.65 567.15,218.67 575.30,218.72 583.45,218.76 591.61,218.80 599.76,218.84 607.92,218.87 616.07,218.94 624.23,218.98 632.38,219.01 640.54,219.04 648.69,219.10 656.85,219.12 665.00,219.16 673.15,219.20 681.31,219.24 689.46,219.27 697.62,219.31 705.77,219.36 713.93,219.40 722.08,219.43 730.24,219.48 738.39,219.51 746.54,219.52 754.70,219.55 762.85,219.56 771.01,219.58 779.16,219.58 787.32,219.60 795.47,219.62 803.63,219.65 811.78,219.66 819.94,219.68 828.09,219.71 836.24,219.73 844.40,219.77 852.55,219.79 860.71,219.83 "
       style="stroke-width: 2.13; stroke: #FB0D0D; stroke-dasharray: 5.69,5.69; stroke-linecap: butt;"
       id="polyline16" />
    <polyline
       points="53.41,258.94 61.57,258.65 69.72,258.70 77.88,258.57 86.03,258.55 94.19,258.53 102.34,258.57 110.49,258.47 118.65,258.42 126.80,258.33 134.96,258.33 143.11,258.30 151.27,258.24 159.42,258.19 167.58,258.18 175.73,258.13 183.88,258.14 192.04,258.08 200.19,258.07 208.35,258.08 216.50,258.13 224.66,258.22 232.81,258.24 240.97,258.23 249.12,258.16 257.28,258.19 265.43,258.23 273.58,258.30 281.74,258.31 289.89,258.27 298.05,258.29 306.20,258.27 314.36,258.22 322.51,258.24 330.67,258.22 338.82,258.25 346.97,258.27 355.13,258.28 363.28,258.26 371.44,258.23 379.59,258.24 387.75,258.26 395.90,258.28 404.06,258.24 412.21,258.25 420.37,258.24 428.52,258.22 436.67,258.23 444.83,258.22 452.98,258.19 461.14,258.20 469.29,258.23 477.45,258.22 485.60,258.17 493.76,258.18 501.91,258.19 510.06,258.19 518.22,258.18 526.37,258.19 534.53,258.15 542.68,258.13 550.84,258.15 558.99,258.12 567.15,258.11 575.30,258.10 583.45,258.11 591.61,258.11 599.76,258.12 607.92,258.13 616.07,258.09 624.23,258.07 632.38,258.05 640.54,258.02 648.69,258.02 656.85,258.02 665.00,258.02 673.15,258.02 681.31,258.01 689.46,258.01 697.62,257.99 705.77,257.97 713.93,257.95 722.08,257.94 730.24,257.92 738.39,257.93 746.54,257.94 754.70,257.95 762.85,257.94 771.01,257.92 779.16,257.91 787.32,257.90 795.47,257.91 803.63,257.90 811.78,257.90 819.94,257.90 828.09,257.93 836.24,257.92 844.40,257.92 852.55,257.92 860.71,257.94 "
       style="stroke-width: 2.13; stroke: #DA16FF; stroke-linecap: butt;"
       id="polyline17" />
    <polyline
       points="53.41,398.04 61.57,400.71 69.72,402.90 77.88,404.59 86.03,405.99 94.19,407.22 102.34,408.20 110.49,409.09 118.65,409.89 126.80,410.73 134.96,411.35 143.11,411.99 151.27,412.51 159.42,413.02 167.58,413.41 175.73,413.79 183.88,414.20 192.04,414.51 200.19,414.80 208.35,415.06 216.50,415.38 224.66,415.62 232.81,415.92 240.97,416.15 249.12,416.38 257.28,416.58 265.43,416.74 273.58,416.90 281.74,417.06 289.89,417.23 298.05,417.34 306.20,417.45 314.36,417.59 322.51,417.68 330.67,417.80 338.82,417.95 346.97,418.08 355.13,418.15 363.28,418.25 371.44,418.35 379.59,418.45 387.75,418.55 395.90,418.63 404.06,418.74 412.21,418.79 420.37,418.88 428.52,418.92 436.67,418.99 444.83,419.10 452.98,419.14 461.14,419.21 469.29,419.26 477.45,419.34 485.60,419.40 493.76,419.47 501.91,419.54 510.06,419.58 518.22,419.63 526.37,419.64 534.53,419.69 542.68,419.73 550.84,419.81 558.99,419.87 567.15,419.91 575.30,419.95 583.45,419.98 591.61,420.02 599.76,420.05 607.92,420.08 616.07,420.12 624.23,420.15 632.38,420.19 640.54,420.22 648.69,420.26 656.85,420.31 665.00,420.32 673.15,420.34 681.31,420.37 689.46,420.41 697.62,420.45 705.77,420.49 713.93,420.50 722.08,420.54 730.24,420.57 738.39,420.59 746.54,420.61 754.70,420.62 762.85,420.64 771.01,420.68 779.16,420.69 787.32,420.70 795.47,420.73 803.63,420.73 811.78,420.76 819.94,420.78 828.09,420.83 836.24,420.84 844.40,420.87 852.55,420.90 860.71,420.91 "
       style="stroke-width: 2.13; stroke: #DA16FF; stroke-dasharray: 5.69,5.69; stroke-linecap: butt;"
       id="polyline18" />
    <line
       x1="53.41"
       y1="259.76"
       x2="860.71"
       y2="259.76"
       style="stroke-width: 1.07; stroke-linecap: butt;"
       id="line18" />
    <polygon
       points="53.41,241.67 61.57,241.83 69.72,242.00 77.88,242.15 86.03,242.16 94.19,242.23 102.34,242.32 110.49,242.35 118.65,242.39 126.80,242.46 134.96,242.58 143.11,242.59 151.27,242.62 159.42,242.60 167.58,242.68 175.73,242.68 183.88,242.74 192.04,242.77 200.19,242.86 208.35,242.94 216.50,242.97 224.66,243.03 232.81,243.11 240.97,243.15 249.12,243.19 257.28,243.16 265.43,243.14 273.58,243.16 281.74,243.23 289.89,243.25 298.05,243.21 306.20,243.22 314.36,243.26 322.51,243.27 330.67,243.33 338.82,243.32 346.97,243.35 355.13,243.32 363.28,243.34 371.44,243.35 379.59,243.35 387.75,243.36 395.90,243.34 404.06,243.34 412.21,243.35 420.37,243.32 428.52,243.32 436.67,243.34 444.83,243.36 452.98,243.34 461.14,243.37 469.29,243.37 477.45,243.38 485.60,243.36 493.76,243.40 501.91,243.39 510.06,243.38 518.22,243.41 526.37,243.39 534.53,243.40 542.68,243.41 550.84,243.38 558.99,243.39 567.15,243.39 575.30,243.40 583.45,243.41 591.61,243.42 599.76,243.39 607.92,243.38 616.07,243.39 624.23,243.39 632.38,243.41 640.54,243.43 648.69,243.43 656.85,243.43 665.00,243.44 673.15,243.44 681.31,243.48 689.46,243.47 697.62,243.47 705.77,243.47 713.93,243.48 722.08,243.47 730.24,243.47 738.39,243.48 746.54,243.48 754.70,243.47 762.85,243.48 771.01,243.49 779.16,243.47 787.32,243.45 795.47,243.47 803.63,243.45 811.78,243.45 819.94,243.45 828.09,243.45 836.24,243.44 844.40,243.44 852.55,243.45 860.71,243.45 860.71,276.08 852.55,276.08 844.40,276.09 836.24,276.09 828.09,276.08 819.94,276.08 811.78,276.08 803.63,276.08 795.47,276.06 787.32,276.08 779.16,276.06 771.01,276.03 762.85,276.05 754.70,276.06 746.54,276.05 738.39,276.05 730.24,276.06 722.08,276.06 713.93,276.05 705.77,276.05 697.62,276.06 689.46,276.06 681.31,276.05 673.15,276.08 665.00,276.09 656.85,276.10 648.69,276.10 640.54,276.10 632.38,276.12 624.23,276.14 616.07,276.14 607.92,276.15 599.76,276.14 591.61,276.11 583.45,276.12 575.30,276.12 567.15,276.14 558.99,276.14 550.84,276.15 542.68,276.11 534.53,276.13 526.37,276.14 518.22,276.12 510.06,276.15 501.91,276.14 493.76,276.13 485.60,276.17 477.45,276.15 469.29,276.16 461.14,276.16 452.98,276.19 444.83,276.17 436.67,276.19 428.52,276.21 420.37,276.21 412.21,276.18 404.06,276.19 395.90,276.19 387.75,276.16 379.59,276.18 371.44,276.18 363.28,276.19 355.13,276.21 346.97,276.18 338.82,276.21 330.67,276.20 322.51,276.26 314.36,276.27 306.20,276.31 298.05,276.32 289.89,276.28 281.74,276.29 273.58,276.37 265.43,276.39 257.28,276.37 249.12,276.34 240.97,276.38 232.81,276.42 224.66,276.50 216.50,276.56 208.35,276.59 200.19,276.67 192.04,276.76 183.88,276.79 175.73,276.85 167.58,276.85 159.42,276.93 151.27,276.91 143.11,276.93 134.96,276.95 126.80,277.07 118.65,277.14 110.49,277.18 102.34,277.21 94.19,277.30 86.03,277.37 77.88,277.38 69.72,277.53 61.57,277.70 53.41,277.86 "
       style="stroke-width: 0.00; stroke: none; stroke-linecap: butt; fill: #ABABAB; fill-opacity: 0.50;"
       id="polygon18" />
    <polyline
       points="53.41,241.67 61.57,241.83 69.72,242.00 77.88,242.15 86.03,242.16 94.19,242.23 102.34,242.32 110.49,242.35 118.65,242.39 126.80,242.46 134.96,242.58 143.11,242.59 151.27,242.62 159.42,242.60 167.58,242.68 175.73,242.68 183.88,242.74 192.04,242.77 200.19,242.86 208.35,242.94 216.50,242.97 224.66,243.03 232.81,243.11 240.97,243.15 249.12,243.19 257.28,243.16 265.43,243.14 273.58,243.16 281.74,243.23 289.89,243.25 298.05,243.21 306.20,243.22 314.36,243.26 322.51,243.27 330.67,243.33 338.82,243.32 346.97,243.35 355.13,243.32 363.28,243.34 371.44,243.35 379.59,243.35 387.75,243.36 395.90,243.34 404.06,243.34 412.21,243.35 420.37,243.32 428.52,243.32 436.67,243.34 444.83,243.36 452.98,243.34 461.14,243.37 469.29,243.37 477.45,243.38 485.60,243.36 493.76,243.40 501.91,243.39 510.06,243.38 518.22,243.41 526.37,243.39 534.53,243.40 542.68,243.41 550.84,243.38 558.99,243.39 567.15,243.39 575.30,243.40 583.45,243.41 591.61,243.42 599.76,243.39 607.92,243.38 616.07,243.39 624.23,243.39 632.38,243.41 640.54,243.43 648.69,243.43 656.85,243.43 665.00,243.44 673.15,243.44 681.31,243.48 689.46,243.47 697.62,243.47 705.77,243.47 713.93,243.48 722.08,243.47 730.24,243.47 738.39,243.48 746.54,243.48 754.70,243.47 762.85,243.48 771.01,243.49 779.16,243.47 787.32,243.45 795.47,243.47 803.63,243.45 811.78,243.45 819.94,243.45 828.09,243.45 836.24,243.44 844.40,243.44 852.55,243.45 860.71,243.45 "
       style="stroke-width: 1.07; stroke: none; stroke-linecap: butt;"
       id="polyline19" />
    <polyline
       points="860.71,276.08 852.55,276.08 844.40,276.09 836.24,276.09 828.09,276.08 819.94,276.08 811.78,276.08 803.63,276.08 795.47,276.06 787.32,276.08 779.16,276.06 771.01,276.03 762.85,276.05 754.70,276.06 746.54,276.05 738.39,276.05 730.24,276.06 722.08,276.06 713.93,276.05 705.77,276.05 697.62,276.06 689.46,276.06 681.31,276.05 673.15,276.08 665.00,276.09 656.85,276.10 648.69,276.10 640.54,276.10 632.38,276.12 624.23,276.14 616.07,276.14 607.92,276.15 599.76,276.14 591.61,276.11 583.45,276.12 575.30,276.12 567.15,276.14 558.99,276.14 550.84,276.15 542.68,276.11 534.53,276.13 526.37,276.14 518.22,276.12 510.06,276.15 501.91,276.14 493.76,276.13 485.60,276.17 477.45,276.15 469.29,276.16 461.14,276.16 452.98,276.19 444.83,276.17 436.67,276.19 428.52,276.21 420.37,276.21 412.21,276.18 404.06,276.19 395.90,276.19 387.75,276.16 379.59,276.18 371.44,276.18 363.28,276.19 355.13,276.21 346.97,276.18 338.82,276.21 330.67,276.20 322.51,276.26 314.36,276.27 306.20,276.31 298.05,276.32 289.89,276.28 281.74,276.29 273.58,276.37 265.43,276.39 257.28,276.37 249.12,276.34 240.97,276.38 232.81,276.42 224.66,276.50 216.50,276.56 208.35,276.59 200.19,276.67 192.04,276.76 183.88,276.79 175.73,276.85 167.58,276.85 159.42,276.93 151.27,276.91 143.11,276.93 134.96,276.95 126.80,277.07 118.65,277.14 110.49,277.18 102.34,277.21 94.19,277.30 86.03,277.37 77.88,277.38 69.72,277.53 61.57,277.70 53.41,277.86 "
       style="stroke-width: 1.07; stroke: none; stroke-linecap: butt;"
       id="polyline20" />
  </g>
  <g
     clip-path="url(#cpMC4wMHw5NTkuOTh8MC4wMHw0NjguMDA=)"
     id="g49">
    <text
       x="46.94"
       y="379.13"
       text-anchor="end"
       style="font-size: 12.00px; font-family: &quot;Arial&quot;;"
       textLength="20.68px"
       lengthAdjust="spacingAndGlyphs"
       id="text20">-0.2</text>
    <text
       x="46.94"
       y="264.06"
       text-anchor="end"
       style="font-size: 12.00px; font-family: &quot;Arial&quot;;"
       textLength="16.68px"
       lengthAdjust="spacingAndGlyphs"
       id="text21">0.0</text>
    <text
       x="46.94"
       y="149.00"
       text-anchor="end"
       style="font-size: 12.00px; font-family: &quot;Arial&quot;;"
       textLength="16.68px"
       lengthAdjust="spacingAndGlyphs"
       id="text22">0.2</text>
    <text
       x="46.94"
       y="33.94"
       text-anchor="end"
       style="font-size: 12.00px; font-family: &quot;Arial&quot;;"
       textLength="16.68px"
       lengthAdjust="spacingAndGlyphs"
       id="text23">0.4</text>
    <polyline
       points="49.93,374.83 53.41,374.83 "
       style="stroke-width: 1.07; stroke: #D9D9D9; stroke-linecap: butt;"
       id="polyline23" />
    <polyline
       points="49.93,259.76 53.41,259.76 "
       style="stroke-width: 1.07; stroke: #D9D9D9; stroke-linecap: butt;"
       id="polyline24" />
    <polyline
       points="49.93,144.70 53.41,144.70 "
       style="stroke-width: 1.07; stroke: #D9D9D9; stroke-linecap: butt;"
       id="polyline25" />
    <polyline
       points="49.93,29.64 53.41,29.64 "
       style="stroke-width: 1.07; stroke: #D9D9D9; stroke-linecap: butt;"
       id="polyline26" />
    <polyline
       points="214.87,430.47 214.87,426.98 "
       style="stroke-width: 1.07; stroke: #D9D9D9; stroke-linecap: butt;"
       id="polyline27" />
    <polyline
       points="416.70,430.47 416.70,426.98 "
       style="stroke-width: 1.07; stroke: #D9D9D9; stroke-linecap: butt;"
       id="polyline28" />
    <polyline
       points="618.52,430.47 618.52,426.98 "
       style="stroke-width: 1.07; stroke: #D9D9D9; stroke-linecap: butt;"
       id="polyline29" />
    <polyline
       points="820.34,430.47 820.34,426.98 "
       style="stroke-width: 1.07; stroke: #D9D9D9; stroke-linecap: butt;"
       id="polyline30" />
    <text
       x="214.87"
       y="442.05"
       text-anchor="middle"
       style="font-size: 12.00px; font-family: &quot;Arial&quot;;"
       textLength="6.67px"
       lengthAdjust="spacingAndGlyphs"
       id="text30">5</text>
    <text
       x="416.70"
       y="442.05"
       text-anchor="middle"
       style="font-size: 12.00px; font-family: &quot;Arial&quot;;"
       textLength="13.35px"
       lengthAdjust="spacingAndGlyphs"
       id="text31">10</text>
    <text
       x="618.52"
       y="442.05"
       text-anchor="middle"
       style="font-size: 12.00px; font-family: &quot;Arial&quot;;"
       textLength="13.35px"
       lengthAdjust="spacingAndGlyphs"
       id="text32">15</text>
    <text
       x="820.34"
       y="442.05"
       text-anchor="middle"
       style="font-size: 12.00px; font-family: &quot;Arial&quot;;"
       textLength="13.35px"
       lengthAdjust="spacingAndGlyphs"
       id="text33">20</text>
    <text
       x="457.06"
       y="458.08"
       text-anchor="middle"
       style="font-size: 14.00px; font-family: &quot;Arial&quot;;"
       textLength="206.14px"
       lengthAdjust="spacingAndGlyphs"
       id="text34">Extrinsic incubation period (days)</text>
    <text
       transform="translate(17.17,265.21) rotate(-90)"
       style="font-size: 14.00px; font-family: &quot;Arial&quot;;"
       textLength="10.11px"
       lengthAdjust="spacingAndGlyphs"
       id="text35">R</text>
    <text
       transform="translate(19.71,255.10) rotate(-90)"
       style="font-size: 9.80px; font-family: &quot;Arial&quot;;"
       textLength="5.45px"
       lengthAdjust="spacingAndGlyphs"
       id="text36">0</text>
    <text
       transform="translate(17.17,249.65) rotate(-90)"
       style="font-size: 14.00px; font-family: &quot;Arial&quot;;"
       textLength="80.90px"
       lengthAdjust="spacingAndGlyphs"
       id="text37"> PRCC value</text>
    <line
       x1="712.07214"
       y1="65.151016"
       x2="731.76959"
       y2="65.151016"
       style="stroke:#2e91e5;stroke-width:3.41936;stroke-linecap:butt"
       id="line38" />
    <line
       x1="712.07214"
       y1="80.719681"
       x2="731.76959"
       y2="80.719681"
       style="stroke:#e15f99;stroke-width:3.41936;stroke-linecap:butt"
       id="line39" />
    <line
       x1="712.07214"
       y1="96.20668"
       x2="731.76959"
       y2="96.20668"
       style="stroke:#1ca71c;stroke-width:3.41936;stroke-linecap:butt"
       id="line40" />
    <line
       x1="712.07214"
       y1="112.44668"
       x2="731.76959"
       y2="112.44668"
       style="stroke:#fb0d0d;stroke-width:3.41936;stroke-linecap:butt"
       id="line41" />
    <polyline
       points="53.41,398.04 61.57,400.71 69.72,402.90 77.88,404.59 86.03,405.99 94.19,407.22 102.34,408.20 110.49,409.09 118.65,409.89 126.80,410.73 134.96,411.35 143.11,411.99 151.27,412.51 159.42,413.02 167.58,413.41 175.73,413.79 183.88,414.20 192.04,414.51 200.19,414.80 208.35,415.06 216.50,415.38 224.66,415.62 232.81,415.92 240.97,416.15 249.12,416.38 257.28,416.58 265.43,416.74 273.58,416.90 281.74,417.06 289.89,417.23 298.05,417.34 306.20,417.45 314.36,417.59 322.51,417.68 330.67,417.80 338.82,417.95 346.97,418.08 355.13,418.15 363.28,418.25 371.44,418.35 379.59,418.45 387.75,418.55 395.90,418.63 404.06,418.74 412.21,418.79 420.37,418.88 428.52,418.92 436.67,418.99 444.83,419.10 452.98,419.14 461.14,419.21 469.29,419.26 477.45,419.34 485.60,419.40 493.76,419.47 501.91,419.54 510.06,419.58 518.22,419.63 526.37,419.64 534.53,419.69 542.68,419.73 550.84,419.81 558.99,419.87 567.15,419.91 575.30,419.95 583.45,419.98 591.61,420.02 599.76,420.05 607.92,420.08 616.07,420.12 624.23,420.15 632.38,420.19 640.54,420.22 648.69,420.26 656.85,420.31 665.00,420.32 673.15,420.34 681.31,420.37 689.46,420.41 697.62,420.45 705.77,420.49 713.93,420.50 722.08,420.54 730.24,420.57 738.39,420.59 746.54,420.61 754.70,420.62 762.85,420.64 771.01,420.68 779.16,420.69 787.32,420.70 795.47,420.73 803.63,420.73 811.78,420.76 819.94,420.78 828.09,420.83 836.24,420.84 844.40,420.87 852.55,420.90 860.71,420.91 "
       style="fill:none;stroke:#da16ff;stroke-width:2.13;stroke-linecap:butt;stroke-linejoin:round;stroke-miterlimit:10;stroke-dasharray:5.69, 5.69"
       id="Probability_label"
       transform="matrix(1.6053321,0,0,1.6055836,-575.12673,-547.5939)"
       clip-path="url(#clipPath51)" />
    <polyline
       points="53.41,398.04 61.57,400.71 69.72,402.90 77.88,404.59 86.03,405.99 94.19,407.22 102.34,408.20 110.49,409.09 118.65,409.89 126.80,410.73 134.96,411.35 143.11,411.99 151.27,412.51 159.42,413.02 167.58,413.41 175.73,413.79 183.88,414.20 192.04,414.51 200.19,414.80 208.35,415.06 216.50,415.38 224.66,415.62 232.81,415.92 240.97,416.15 249.12,416.38 257.28,416.58 265.43,416.74 273.58,416.90 281.74,417.06 289.89,417.23 298.05,417.34 306.20,417.45 314.36,417.59 322.51,417.68 330.67,417.80 338.82,417.95 346.97,418.08 355.13,418.15 363.28,418.25 371.44,418.35 379.59,418.45 387.75,418.55 395.90,418.63 404.06,418.74 412.21,418.79 420.37,418.88 428.52,418.92 436.67,418.99 444.83,419.10 452.98,419.14 461.14,419.21 469.29,419.26 477.45,419.34 485.60,419.40 493.76,419.47 501.91,419.54 510.06,419.58 518.22,419.63 526.37,419.64 534.53,419.69 542.68,419.73 550.84,419.81 558.99,419.87 567.15,419.91 575.30,419.95 583.45,419.98 591.61,420.02 599.76,420.05 607.92,420.08 616.07,420.12 624.23,420.15 632.38,420.19 640.54,420.22 648.69,420.26 656.85,420.31 665.00,420.32 673.15,420.34 681.31,420.37 689.46,420.41 697.62,420.45 705.77,420.49 713.93,420.50 722.08,420.54 730.24,420.57 738.39,420.59 746.54,420.61 754.70,420.62 762.85,420.64 771.01,420.68 779.16,420.69 787.32,420.70 795.47,420.73 803.63,420.73 811.78,420.76 819.94,420.78 828.09,420.83 836.24,420.84 844.40,420.87 852.55,420.90 860.71,420.91 "
       style="fill:none;stroke:#fb0d0d;stroke-width:2.13;stroke-linecap:butt;stroke-linejoin:round;stroke-miterlimit:10;stroke-dasharray:5.69, 5.69;stroke-opacity:1"
       id="Probability_label-1"
       transform="matrix(1.6053321,0,0,1.6055836,-575.12625,-563.0339)"
       clip-path="url(#clipPath51-3)" />
    <polyline
       points="53.41,398.04 61.57,400.71 69.72,402.90 77.88,404.59 86.03,405.99 94.19,407.22 102.34,408.20 110.49,409.09 118.65,409.89 126.80,410.73 134.96,411.35 143.11,411.99 151.27,412.51 159.42,413.02 167.58,413.41 175.73,413.79 183.88,414.20 192.04,414.51 200.19,414.80 208.35,415.06 216.50,415.38 224.66,415.62 232.81,415.92 240.97,416.15 249.12,416.38 257.28,416.58 265.43,416.74 273.58,416.90 281.74,417.06 289.89,417.23 298.05,417.34 306.20,417.45 314.36,417.59 322.51,417.68 330.67,417.80 338.82,417.95 346.97,418.08 355.13,418.15 363.28,418.25 371.44,418.35 379.59,418.45 387.75,418.55 395.90,418.63 404.06,418.74 412.21,418.79 420.37,418.88 428.52,418.92 436.67,418.99 444.83,419.10 452.98,419.14 461.14,419.21 469.29,419.26 477.45,419.34 485.60,419.40 493.76,419.47 501.91,419.54 510.06,419.58 518.22,419.63 526.37,419.64 534.53,419.69 542.68,419.73 550.84,419.81 558.99,419.87 567.15,419.91 575.30,419.95 583.45,419.98 591.61,420.02 599.76,420.05 607.92,420.08 616.07,420.12 624.23,420.15 632.38,420.19 640.54,420.22 648.69,420.26 656.85,420.31 665.00,420.32 673.15,420.34 681.31,420.37 689.46,420.41 697.62,420.45 705.77,420.49 713.93,420.50 722.08,420.54 730.24,420.57 738.39,420.59 746.54,420.61 754.70,420.62 762.85,420.64 771.01,420.68 779.16,420.69 787.32,420.70 795.47,420.73 803.63,420.73 811.78,420.76 819.94,420.78 828.09,420.83 836.24,420.84 844.40,420.87 852.55,420.90 860.71,420.91 "
       style="fill:none;stroke:#1ca71c;stroke-width:2.13;stroke-linecap:butt;stroke-linejoin:round;stroke-miterlimit:10;stroke-dasharray:5.69, 5.69;stroke-opacity:1"
       id="Probability_label-1-2"
       transform="matrix(1.6053321,0,0,1.6055836,-575.12625,-579.2739)"
       clip-path="url(#clipPath51-3-1)" />
    <text
       x="896.96997"
       y="294.22"
       style="font-size:12px;font-family:Arial"
       textLength="56.029999"
       lengthAdjust="spacingAndGlyphs"
       id="text49"
       transform="translate(-160.05349,-241.96639)"><tspan
         style="font-weight:bold"
         id="tspan53">Probability</tspan></text>
    <line
       x1="712.07214"
       y1="127.88667"
       x2="731.76959"
       y2="127.88667"
       style="stroke:#da16ff;stroke-width:3.41936;stroke-linecap:butt"
       id="line42" />
    <text
       x="896.96997"
       y="168.27"
       style="font-style:normal;font-variant:normal;font-weight:bold;font-stretch:normal;font-size:12px;font-family:Arial;-inkscape-font-specification:'Arial Bold'"
       textLength="48.040001"
       lengthAdjust="spacingAndGlyphs"
       id="text42"
       transform="translate(-239.11786,-99.473645)"><tspan
         style="font-style:normal;font-variant:normal;font-weight:normal;font-stretch:normal;font-family:Arial;-inkscape-font-specification:'Arial Bold'"
         id="tspan54">Questing</tspan></text>
    <text
       x="896.96997"
       y="183.62"
       style="font-style:normal;font-variant:normal;font-weight:bold;font-stretch:normal;font-size:12px;font-family:Arial;-inkscape-font-specification:'Arial Bold'"
       textLength="43.369999"
       lengthAdjust="spacingAndGlyphs"
       id="text43"
       transform="translate(-234.51809,-99.473645)"><tspan
         style="font-style:normal;font-variant:normal;font-weight:normal;font-stretch:normal;font-family:Arial;-inkscape-font-specification:'Arial Bold'"
         id="tspan55">Seeking</tspan></text>
    <text
       x="896.96997"
       y="198.96001"
       style="font-style:normal;font-variant:normal;font-weight:bold;font-stretch:normal;font-size:12px;font-family:Arial;-inkscape-font-specification:'Arial Bold'"
       textLength="42.709999"
       lengthAdjust="spacingAndGlyphs"
       id="text44"
       transform="translate(-233.9179,-99.473645)"><tspan
         style="font-style:normal;font-variant:normal;font-weight:normal;font-stretch:normal;font-family:Arial;-inkscape-font-specification:'Arial Bold'"
         id="tspan56">Landing</tspan></text>
    <text
       x="896.96997"
       y="214.3"
       style="font-style:normal;font-variant:normal;font-weight:bold;font-stretch:normal;font-size:12px;font-family:Arial;-inkscape-font-specification:'Arial Bold'"
       textLength="41.360001"
       lengthAdjust="spacingAndGlyphs"
       id="text45"
       transform="translate(-232.61772,-99.473645)"><tspan
         style="font-style:normal;font-variant:normal;font-weight:normal;font-stretch:normal;font-family:Arial;-inkscape-font-specification:'Arial Bold'"
         id="tspan57">Probing</tspan></text>
    <text
       x="896.96997"
       y="229.64"
       style="font-style:normal;font-variant:normal;font-weight:bold;font-stretch:normal;font-size:12px;font-family:Arial;-inkscape-font-specification:'Arial Bold'"
       textLength="48.709999"
       lengthAdjust="spacingAndGlyphs"
       id="text46"
       transform="translate(-239.91827,-99.473156)"><tspan
         style="font-style:normal;font-variant:normal;font-weight:normal;font-stretch:normal;font-family:Arial;-inkscape-font-specification:'Arial Bold'"
         id="tspan58">Ingesting</tspan></text>
    <text
       x="896.96997"
       y="278.87"
       style="font-size:12px;font-family:Arial"
       textLength="25.35"
       lengthAdjust="spacingAndGlyphs"
       id="text48"
       transform="translate(-190.7762,-226.61678)"><tspan
         style="font-weight:bold"
         id="tspan52">Rate</tspan></text>
    <polyline
       points="53.41,398.04 61.57,400.71 69.72,402.90 77.88,404.59 86.03,405.99 94.19,407.22 102.34,408.20 110.49,409.09 118.65,409.89 126.80,410.73 134.96,411.35 143.11,411.99 151.27,412.51 159.42,413.02 167.58,413.41 175.73,413.79 183.88,414.20 192.04,414.51 200.19,414.80 208.35,415.06 216.50,415.38 224.66,415.62 232.81,415.92 240.97,416.15 249.12,416.38 257.28,416.58 265.43,416.74 273.58,416.90 281.74,417.06 289.89,417.23 298.05,417.34 306.20,417.45 314.36,417.59 322.51,417.68 330.67,417.80 338.82,417.95 346.97,418.08 355.13,418.15 363.28,418.25 371.44,418.35 379.59,418.45 387.75,418.55 395.90,418.63 404.06,418.74 412.21,418.79 420.37,418.88 428.52,418.92 436.67,418.99 444.83,419.10 452.98,419.14 461.14,419.21 469.29,419.26 477.45,419.34 485.60,419.40 493.76,419.47 501.91,419.54 510.06,419.58 518.22,419.63 526.37,419.64 534.53,419.69 542.68,419.73 550.84,419.81 558.99,419.87 567.15,419.91 575.30,419.95 583.45,419.98 591.61,420.02 599.76,420.05 607.92,420.08 616.07,420.12 624.23,420.15 632.38,420.19 640.54,420.22 648.69,420.26 656.85,420.31 665.00,420.32 673.15,420.34 681.31,420.37 689.46,420.41 697.62,420.45 705.77,420.49 713.93,420.50 722.08,420.54 730.24,420.57 738.39,420.59 746.54,420.61 754.70,420.62 762.85,420.64 771.01,420.68 779.16,420.69 787.32,420.70 795.47,420.73 803.63,420.73 811.78,420.76 819.94,420.78 828.09,420.83 836.24,420.84 844.40,420.87 852.55,420.90 860.71,420.91 "
       style="fill:none;stroke:#e15f99;stroke-width:2.13;stroke-linecap:butt;stroke-linejoin:round;stroke-miterlimit:10;stroke-dasharray:5.69, 5.69;stroke-opacity:1"
       id="Probability_label-1-2-3"
       transform="matrix(1.6053321,0,0,1.6055836,-575.12625,-594.7609)"
       clip-path="url(#clipPath51-3-1-9)" />
    <polyline
       points="53.41,398.04 61.57,400.71 69.72,402.90 77.88,404.59 86.03,405.99 94.19,407.22 102.34,408.20 110.49,409.09 118.65,409.89 126.80,410.73 134.96,411.35 143.11,411.99 151.27,412.51 159.42,413.02 167.58,413.41 175.73,413.79 183.88,414.20 192.04,414.51 200.19,414.80 208.35,415.06 216.50,415.38 224.66,415.62 232.81,415.92 240.97,416.15 249.12,416.38 257.28,416.58 265.43,416.74 273.58,416.90 281.74,417.06 289.89,417.23 298.05,417.34 306.20,417.45 314.36,417.59 322.51,417.68 330.67,417.80 338.82,417.95 346.97,418.08 355.13,418.15 363.28,418.25 371.44,418.35 379.59,418.45 387.75,418.55 395.90,418.63 404.06,418.74 412.21,418.79 420.37,418.88 428.52,418.92 436.67,418.99 444.83,419.10 452.98,419.14 461.14,419.21 469.29,419.26 477.45,419.34 485.60,419.40 493.76,419.47 501.91,419.54 510.06,419.58 518.22,419.63 526.37,419.64 534.53,419.69 542.68,419.73 550.84,419.81 558.99,419.87 567.15,419.91 575.30,419.95 583.45,419.98 591.61,420.02 599.76,420.05 607.92,420.08 616.07,420.12 624.23,420.15 632.38,420.19 640.54,420.22 648.69,420.26 656.85,420.31 665.00,420.32 673.15,420.34 681.31,420.37 689.46,420.41 697.62,420.45 705.77,420.49 713.93,420.50 722.08,420.54 730.24,420.57 738.39,420.59 746.54,420.61 754.70,420.62 762.85,420.64 771.01,420.68 779.16,420.69 787.32,420.70 795.47,420.73 803.63,420.73 811.78,420.76 819.94,420.78 828.09,420.83 836.24,420.84 844.40,420.87 852.55,420.90 860.71,420.91 "
       style="fill:none;stroke:#2e91e5;stroke-width:2.13;stroke-linecap:butt;stroke-linejoin:round;stroke-miterlimit:10;stroke-dasharray:5.69, 5.69;stroke-opacity:1"
       id="Probability_label-1-2-9"
       transform="matrix(1.6053321,0,0,1.6055836,-575.12673,-610.3299)"
       clip-path="url(#clipPath51-3-1-3)" />
  </g>
</svg>
